<?xml version="1.0" encoding="UTF-8"?>
<svg version="1.1" xmlns="http://www.w3.org/2000/svg" width="2888" height="1988">
<path d="M0 0 C1.03226715 -0.0092601 1.03226715 -0.0092601 2.08538818 -0.01870728 C15.55536046 -0.09793759 30.67860222 0.77814236 41.25 10 C44.17853148 13.46099175 44.50703701 16.22311791 44.625 20.625 C44.66238281 21.52605469 44.69976563 22.42710937 44.73828125 23.35546875 C43.69119766 30.93481696 38.52510993 37.38861185 34.375 43.625 C18.37735554 67.97062163 3.6475569 93.08473684 -10.6875 118.4375 C-11.23519043 119.40526367 -11.78288086 120.37302734 -12.34716797 121.37011719 C-20.73260924 136.20792225 -28.89846933 151.15456391 -36.94189453 166.18017578 C-39.24965995 170.48649833 -41.56794117 174.78711459 -43.88647461 179.08764648 C-52.48910762 195.04498105 -61.04794991 211.02578632 -69.59912109 227.01074219 C-73.95641269 235.15594962 -78.31820021 243.29872514 -82.6875 251.4375 C-83.25210938 252.48953613 -83.81671875 253.54157227 -84.3984375 254.62548828 C-92.30431416 269.33997644 -100.40062736 283.93428428 -108.6875 298.4375 C-109.26725586 299.45537598 -109.84701172 300.47325195 -110.44433594 301.52197266 C-158.11860655 385.15263911 -158.11860655 385.15263911 -183.6875 413.4375 C-184.59869054 414.47956526 -185.50882705 415.52255301 -186.41796875 416.56640625 C-192.30517363 423.24965684 -198.62821813 428.99396657 -205.6875 434.4375 C-206.69554687 435.24960938 -207.70359375 436.06171875 -208.7421875 436.8984375 C-244.38553481 465.41751644 -290.43635059 479.71496856 -335.74205017 479.52651978 C-337.36485823 479.52353751 -338.98766715 479.52100218 -340.61047655 479.51887262 C-345.05079901 479.51174548 -349.49108246 479.4982557 -353.93138587 479.48368168 C-358.72862779 479.46905025 -363.52588103 479.46033457 -368.32313538 479.45085144 C-377.71826512 479.43132293 -387.11337235 479.406269 -396.50848322 479.3792484 C-404.1553205 479.35736372 -411.80216058 479.33752365 -419.44900703 479.31913376 C-420.53889967 479.31651163 -421.6287923 479.3138895 -422.75171198 479.31118792 C-424.96627389 479.30586993 -427.1808358 479.30055715 -429.39539773 479.29524951 C-450.16305696 479.24524612 -470.9306958 479.18903206 -491.69833291 479.13064377 C-509.46904485 479.08081774 -527.2397635 479.03606183 -545.01049805 478.99511719 C-565.67926355 478.94749183 -586.34801785 478.89682279 -607.01676375 478.84129179 C-609.22821747 478.83535724 -611.43967121 478.82942589 -613.65112495 478.82349777 C-614.73896352 478.82057939 -615.82680208 478.817661 -616.94760544 478.81465418 C-624.56535201 478.79441735 -632.18310188 478.77628918 -639.80085564 478.75899124 C-649.11435991 478.73777721 -658.42784809 478.71314367 -667.74133211 478.68434478 C-672.48184339 478.66976595 -677.22234619 478.6565799 -681.96287155 478.64753914 C-691.77568489 478.62797851 -701.58742662 478.58218991 -711.3997314 478.47810411 C-714.20571958 478.4488972 -717.01133 478.43169949 -719.81746221 478.42613173 C-723.55135695 478.41237333 -727.28277934 478.36130544 -731.01612854 478.29867554 C-732.07011965 478.30217911 -733.12411075 478.30568269 -734.21004099 478.30929244 C-741.6689322 478.1215392 -746.76739959 475.98361744 -752.6875 471.4375 C-756.806765 466.91635549 -757.92033316 462.43295388 -757.6875 456.4375 C-755.56121524 443.80246169 -747.31189081 433.15799903 -740.27734375 422.79443359 C-738.47237541 420.11857912 -736.68823841 417.42949278 -734.90625 414.73828125 C-727.02058422 402.83362937 -719.05211566 391.0114514 -710.6875 379.4375 C-710.13884277 378.67630859 -709.59018555 377.91511719 -709.02490234 377.13085938 C-701.88346007 367.24921328 -694.52396474 357.61103394 -686.76953125 348.203125 C-683.84029355 344.64534641 -681.009287 341.01811849 -678.1875 337.375 C-670.15044651 327.05216549 -661.42983719 317.29695561 -652.64453125 307.609375 C-650.90333115 305.67702519 -649.19718171 303.7209207 -647.5 301.75 C-636.4775758 289.14892926 -624.68339536 277.27299437 -612.83544922 265.45507812 C-610.29146672 262.9165115 -607.75294872 260.3725667 -605.21484375 257.828125 C-603.5732376 256.18717888 -601.93132169 254.54654256 -600.2890625 252.90625 C-599.54306793 252.1582312 -598.79707336 251.4102124 -598.0284729 250.63952637 C-593.9607464 246.589733 -589.80691225 242.70252769 -585.45133972 238.96322632 C-582.68779413 236.57275161 -580.03963116 234.06187945 -577.375 231.5625 C-572.5810086 227.10245644 -567.66239004 222.87440447 -562.5546875 218.7734375 C-559.27170967 216.09874984 -556.07496861 213.33530652 -552.875 210.5625 C-546.6022113 205.15118452 -540.1612388 199.99758215 -533.609375 194.9296875 C-531.54486141 193.32675215 -529.49067524 191.71117942 -527.4375 190.09375 C-517.04790275 181.92699563 -506.4759914 174.0685923 -495.6875 166.4375 C-494.80433105 165.81085449 -493.92116211 165.18420898 -493.01123047 164.53857422 C-479.16688616 154.73609191 -465.106493 145.37218494 -450.6875 136.4375 C-449.6243457 135.77637207 -448.56119141 135.11524414 -447.46582031 134.43408203 C-429.85521299 123.51243833 -411.96365123 113.20425032 -393.6875 103.4375 C-393.06852844 103.10621094 -392.44955688 102.77492188 -391.81182861 102.43359375 C-324.50011014 66.4561524 -251.95280779 38.85945264 0 0 Z " fill="#1C1F24" transform="translate(1924.6875,766.5625)"/>
<path d="M0 0 C2.99656266 0.13339918 5.99340524 0.25800115 8.99038696 0.3815918 C10.88387548 0.46327126 12.77734958 0.54528569 14.67080688 0.62768555 C15.94379135 0.67891823 15.94379135 0.67891823 17.24249268 0.73118591 C32.83591044 1.44012179 32.83591044 1.44012179 38.58096313 7.3190918 C41.25701408 11.09060219 42.61175739 14.49527893 41.95596313 19.1315918 C38.04089271 32.30379137 29.81898614 44.35804453 22.95596313 56.1315918 C22.47917114 56.95900879 22.00237915 57.78642578 21.51113892 58.63891602 C-4.8798266 104.38136644 -37.43919728 146.84250205 -73.45053101 185.39453125 C-74.58887931 186.63543031 -75.71141011 187.89091546 -76.8230896 189.15576172 C-83.69518887 196.94993806 -91.02683767 204.2659128 -98.38265991 211.60058594 C-100.60883549 213.82138487 -102.82959319 216.04750146 -105.04989624 218.27416992 C-106.48642457 219.71003764 -107.92326298 221.14559523 -109.36044312 222.58081055 C-110.33890953 223.56231331 -110.33890953 223.56231331 -111.33714294 224.56364441 C-115.18245874 228.38975188 -119.13562708 232.03556277 -123.2479248 235.57359314 C-126.0196237 237.97784355 -128.68082167 240.49678952 -131.35653687 243.0065918 C-136.13161288 247.44947059 -141.03223419 251.65482087 -146.12216187 255.73706055 C-148.89884763 258.01260651 -151.59711855 260.35422786 -154.28988647 262.72729492 C-161.51577673 269.08855676 -168.97538569 275.0261985 -176.66513062 280.81518555 C-179.62375756 283.04325464 -182.55001205 285.30566604 -185.45419312 287.60424805 C-194.65730432 294.88340255 -204.06053793 301.69605056 -213.79403687 308.2487793 C-217.08486346 310.46607404 -220.30171821 312.75666474 -223.48153687 315.1315918 C-253.01525796 336.8381942 -285.71817687 354.9962086 -318.04403687 372.1315918 C-319.10993042 372.6987793 -320.17582397 373.2659668 -321.27401733 373.8503418 C-381.59596835 405.86483497 -446.05304527 430.99662655 -512.03903198 448.59631348 C-514.0016873 449.12028569 -515.96287107 449.64949406 -517.92391968 450.17944336 C-567.36282481 463.42810823 -617.9202188 471.50870904 -668.86862183 475.94018555 C-670.8850036 476.11759908 -672.90059777 476.30390312 -674.91610718 476.4909668 C-690.90050115 477.95878762 -706.81480653 478.33001121 -722.85653687 478.3815918 C-723.80308136 478.38694946 -724.74962585 478.39230713 -725.72485352 478.39782715 C-728.44208083 478.40954303 -731.15883786 478.40608546 -733.87606812 478.3972168 C-734.68322266 478.40116455 -735.4903772 478.4051123 -736.32199097 478.40917969 C-744.08593152 478.34645229 -750.85490059 477.19543057 -757.04403687 472.1315918 C-760.38198507 468.25235469 -761.84323493 464.79266693 -762.30599976 459.77929688 C-761.74471213 454.10626397 -758.12171581 449.51028301 -755.10653687 444.8190918 C-754.37001344 443.63397807 -753.63634211 442.44708762 -752.90536499 441.25854492 C-751.76737271 439.40823009 -750.62808211 437.55893586 -749.48046875 435.71456909 C-745.4862817 429.2875695 -741.76288397 422.72123341 -738.04403687 416.1315918 C-732.78745202 406.86408202 -727.43210611 397.66188101 -721.98153687 388.5065918 C-714.21021224 375.45284761 -706.60908535 362.30569151 -699.04403687 349.1315918 C-690.80050934 334.7759596 -682.48796415 320.46818411 -674.02694702 306.23950195 C-666.91856424 294.26903369 -659.97668694 282.20440581 -653.04403687 270.1315918 C-644.80050934 255.7759596 -636.48796415 241.46818411 -628.02694702 227.23950195 C-620.91856424 215.26903369 -613.97668694 203.20440581 -607.04403687 191.1315918 C-598.80050934 176.7759596 -590.48796415 162.46818411 -582.02694702 148.23950195 C-574.25659489 135.15428181 -566.67925899 121.95874802 -559.10897827 108.75708008 C-555.92303786 103.20220924 -552.72761808 97.65354413 -549.50497437 92.11987305 C-547.40982892 88.52065165 -545.36727966 84.90517884 -543.39559937 81.23706055 C-523.62804059 45.37283862 -481.05562582 19.45762385 -442.83309937 7.44799805 C-442.15036957 7.2605452 -441.46763977 7.07309235 -440.76422119 6.87995911 C-438.76415152 6.32970714 -436.77299312 5.7468017 -434.78759766 5.14575195 C-421.47999001 1.37452895 -408.32787992 1.58052652 -394.59091187 1.62768555 C-391.95320283 1.62124301 -389.31556057 1.6130342 -386.6778717 1.60229492 C-381.01783035 1.58185238 -375.35789166 1.57359431 -369.69781494 1.57369995 C-355.17714118 1.57251977 -340.65668511 1.50045188 -326.136235 1.42506337 C-323.73991465 1.41278465 -321.34359163 1.40119778 -318.94726753 1.38967705 C-285.35998853 1.22391054 -251.79144921 0.52775314 -218.21414727 -0.27137876 C-204.20985092 -0.6043206 -190.20519796 -0.921822 -176.20028687 -1.2277832 C-175.14631671 -1.25081686 -175.14631671 -1.25081686 -174.07105422 -1.27431583 C-116.02591332 -2.53762938 -58.008942 -2.61353542 0 0 Z " fill="#1C1F24" transform="translate(1601.0440368652344,194.868408203125)"/>
<path d="M0 0 C41.66557477 -0.06624368 83.33109952 -0.12159476 124.99671195 -0.15319599 C129.92537967 -0.15694772 134.85404729 -0.16083072 139.78271484 -0.16479492 C140.76384689 -0.16558185 141.74497893 -0.16636878 142.75584225 -0.16717956 C158.60338668 -0.18020273 174.45089818 -0.2038394 190.29842313 -0.23145839 C206.582006 -0.25959882 222.86557172 -0.27619444 239.14917791 -0.28226548 C249.18193695 -0.28636408 259.21460287 -0.29926808 269.24733321 -0.3237494 C276.14456589 -0.33971346 283.04175103 -0.34437646 289.9390008 -0.34050413 C293.90726211 -0.33859902 297.87536169 -0.34133796 301.8435936 -0.35761642 C335.42350774 -0.48822007 372.56832229 0.84052679 398 26 C420.45733252 51.17232347 424.49360458 81.19377074 424.34057617 113.81884766 C424.33972826 116.37319427 424.34020824 118.92754162 424.34190369 121.48188782 C424.34258239 126.94427616 424.33418592 132.40652534 424.31719017 137.86888504 C424.29263458 145.76615727 424.28497814 153.66337775 424.2812262 161.56068401 C424.27468742 174.37870187 424.25479679 187.19666191 424.22631836 200.01464844 C424.19871069 212.45377313 424.17751011 224.89288203 424.16479492 237.33203125 C424.16400675 238.10093408 424.16321858 238.86983691 424.16240653 239.66203983 C424.15849094 243.52004277 424.15469993 247.37804582 424.15097082 251.23604894 C424.11995522 283.15740834 424.0669647 315.07869512 424 347 C376.67803567 347.06874551 329.35607664 347.12156905 282.03407217 347.15319599 C276.44060207 347.15694787 270.84713207 347.16083086 265.25366211 347.16479492 C264.14015608 347.16558185 263.02665006 347.16636878 261.87940142 347.16717956 C243.87647913 347.18021476 225.87358572 347.20385818 207.87068053 347.23145839 C189.3824577 347.25956513 170.89424995 347.27618738 152.40600663 347.28226548 C141.00820814 347.28637101 129.61049133 347.29931326 118.21271799 347.3237494 C110.38481111 347.3396717 102.55694613 347.34438573 94.72902425 347.34050413 C90.22039626 347.33859265 85.71191047 347.34141315 81.20330811 347.35761642 C44.028693 347.48443954 9.82688771 344.34071754 -18.625 317.875 C-39.70802323 295.83539677 -45.78668034 265.24298417 -45.18359375 235.65234375 C-44.19752427 206.10088268 -34.99095083 179.46546944 -13.203125 158.79296875 C13.92626034 134.31177005 51.75629997 133.83468594 86.00732422 133.88647461 C88.63004556 133.88675704 91.25276698 133.88659766 93.87548828 133.8860321 C99.49777583 133.88551063 105.12005167 133.88861789 110.74233627 133.89426994 C118.87097086 133.90243625 126.99959985 133.9050054 135.1282381 133.90625793 C148.32003302 133.90844043 161.51182173 133.91507867 174.70361328 133.92456055 C187.50960255 133.93375548 200.31559012 133.94082611 213.12158203 133.94506836 C213.91244473 133.94533108 214.70330742 133.94559381 215.51813565 133.94586449 C219.48610971 133.94716964 223.45408379 133.94843332 227.42205787 133.94967639 C260.28137644 133.96002401 293.14068738 133.97762038 326 134 C325.88836413 130.54110333 325.7581757 127.08312901 325.625 123.625 C325.57859375 122.17673828 325.57859375 122.17673828 325.53125 120.69921875 C325.06446862 109.1074812 323.43576072 96.90532266 315.1796875 88.046875 C304.7057384 79.65075386 292.93273381 78.85305496 280.07276917 78.84178162 C278.8743909 78.83684364 277.67601264 78.83190566 276.44131988 78.82681805 C273.12786674 78.81414393 269.81445527 78.80583563 266.50098765 78.79939139 C262.92301471 78.79136163 259.34506283 78.77767278 255.7671051 78.76467896 C249.57230351 78.74295265 243.37749976 78.72479416 237.18268013 78.70907402 C228.22606347 78.68634029 219.26947016 78.65820237 210.31287336 78.62875474 C195.78061405 78.58112172 181.24834517 78.53784594 166.71606445 78.49731445 C152.60114803 78.45793768 138.4862401 78.41650623 124.37133789 78.37231445 C123.06579242 78.36822804 123.06579242 78.36822804 121.7338723 78.36405908 C117.36741783 78.35037924 113.00096349 78.33665904 108.63450921 78.32291877 C72.42302281 78.2090214 36.21151935 78.10300065 0 78 C0 52.26 0 26.52 0 0 Z M64.5625 221.6875 C59.94439034 228.64737065 57.95467415 236.70802334 59 245 C60.68727289 253.05733936 63.58264357 259.71291171 70.2580896 264.91034478 C76.78941411 268.99602672 83.883708 269.43145595 91.38343811 269.36076355 C92.39159826 269.36332682 93.39975841 269.3658901 94.43846887 269.36853105 C97.79646602 269.37344893 101.15400758 269.35700872 104.51196289 269.34057617 C106.92705271 269.33972947 109.3421433 269.34020588 111.75723267 269.34190369 C116.94638995 269.34258552 122.13544536 269.33410948 127.32457161 269.31719017 C134.82704102 269.29274414 142.32945581 269.28498919 149.83196073 269.2812262 C162.00608762 269.27467047 174.18015399 269.25473324 186.35424805 269.22631836 C198.17585956 269.19875498 209.99745461 269.17753258 221.8190918 269.16479492 C222.9132659 269.16361267 222.9132659 269.16361267 224.02954454 269.16240653 C227.68920618 269.15849124 231.34886794 269.15470016 235.00852978 269.15097082 C265.33907277 269.11990228 295.66950461 269.06461404 326 269 C326 250.52 326 232.04 326 213 C294.57646542 212.88970983 263.15311806 212.79741341 231.72945026 212.74467335 C228.01706155 212.73842005 224.30467325 212.73194841 220.59228516 212.7253418 C219.48371112 212.72337447 219.48371112 212.72337447 218.35274164 212.7213674 C206.39635935 212.69962875 194.44009762 212.66021578 182.48378678 212.61423602 C170.20955132 212.56742837 157.93537888 212.53969552 145.66105783 212.52955753 C138.09105507 212.52270725 130.52139315 212.50109538 122.95149533 212.46041767 C117.14048966 212.43078794 111.32970092 212.42773673 105.5186348 212.43446159 C103.13945419 212.43308808 100.76026047 212.42316947 98.38115692 212.40397263 C95.12616306 212.37900054 91.87261331 212.38511108 88.61758423 212.39872742 C87.68175747 212.38416321 86.7459307 212.369599 85.78174555 212.35459346 C77.38217984 212.44920809 70.06872394 215.14973324 64.5625 221.6875 Z " fill="#1C1F24" transform="translate(585,1444)"/>
<path d="M0 0 C3.81007541 0.00880996 7.62014618 0.00570224 11.43022895 0.00419545 C17.99849963 0.00315744 24.56672993 0.00931889 31.13499045 0.02067113 C40.63105272 0.03707275 50.12709589 0.04214894 59.62317078 0.04464711 C75.03782089 0.04900151 90.45244957 0.06224866 105.86708808 0.08125234 C120.82216513 0.09967003 135.77723632 0.11379753 150.73232245 0.12226796 C151.65743426 0.12279341 152.58254607 0.12331886 153.53569157 0.12386023 C158.17768527 0.1264707 162.81967901 0.12899802 167.46167278 0.13148403 C205.84276125 0.15214612 244.22380999 0.18897735 282.60488105 0.23213124 C282.60488105 26.30213124 282.60488105 52.37213124 282.60488105 79.23213124 C273.27166572 79.24147695 263.93845038 79.25082265 254.32241035 79.26045156 C224.44493372 79.29317319 194.56751995 79.34546865 164.69009588 79.4100522 C160.04767758 79.42006941 155.40525893 79.42991358 150.76284003 79.43965077 C149.37653229 79.44256283 149.37653229 79.44256283 147.96221832 79.44553372 C133.0061109 79.47653785 118.05001882 79.49352994 103.09388532 79.50532547 C87.74257004 79.51774525 72.39133513 79.54526534 57.04007059 79.58674431 C47.57080571 79.61185601 38.10167416 79.62525022 28.63237552 79.62356082 C22.13510782 79.62353101 15.63797575 79.63819536 9.14076092 79.66429552 C5.39459544 79.67891415 1.64870805 79.68716806 -2.09748101 79.67793393 C-6.16642407 79.66807433 -10.23463591 79.68921633 -14.30352044 79.71314931 C-15.47767316 79.70538889 -16.65182587 79.69762847 -17.86155897 79.68963289 C-25.7798933 79.771907 -34.01839486 80.65029583 -40.36692911 85.84582663 C-46.02024051 91.66788313 -47.5426802 98.71331487 -47.83261895 106.60713124 C-47.64462292 114.25230326 -45.55979248 120.54416893 -41.70761895 127.10713124 C-36.66562917 131.74031104 -30.24314624 135.35010391 -23.30243802 135.36520982 C-22.46581712 135.36945086 -21.62919623 135.37369191 -20.76722318 135.37806147 C-19.84799461 135.37767534 -18.92876604 135.37728921 -17.98168206 135.37689137 C-16.51667462 135.38218164 -16.51667462 135.38218164 -15.02207106 135.38757879 C-11.7337366 135.39829332 -8.44543107 135.40195172 -5.15708184 135.40571523 C-2.80488231 135.41201894 -0.45268397 135.41878454 1.89951301 135.4259789 C6.97573258 135.44066966 12.05194748 135.45238655 17.12817931 135.4619267 C24.48936046 135.4760701 31.85051021 135.4970134 39.21166713 135.52035523 C51.18314371 135.5582981 63.15462657 135.5932457 75.12612128 135.62495351 C76.20130037 135.62780425 76.20130037 135.62780425 77.29820026 135.63071258 C87.43575277 135.65745675 97.57331001 135.68135075 107.71087218 135.70409758 C108.42250399 135.70569488 109.13413581 135.70729218 109.86733222 135.70893788 C110.93346726 135.71132808 110.93346726 135.71132808 112.02114039 135.71376657 C123.92716734 135.74065564 135.83315858 135.77511188 147.73914701 135.81559163 C155.71596109 135.84238674 163.69274781 135.86021339 171.66960108 135.87162888 C176.66258118 135.88082937 181.65550909 135.89822675 186.64845824 135.91780782 C188.94439591 135.92521037 191.24034705 135.92935991 193.53629661 135.92980313 C228.88789096 135.94212535 228.88789096 135.94212535 244.60488105 140.54463124 C245.38484443 140.76264394 246.16480781 140.98065663 246.96840644 141.20527577 C263.76767671 146.04182445 277.29901998 153.94418264 289.60488105 166.23213124 C290.27390449 166.88955312 290.94292792 167.54697499 291.6322248 168.22431874 C313.85716345 191.70917456 315.3898374 225.90854758 314.73671699 256.31758046 C313.79161808 284.38001735 302.62948334 311.02429243 282.35488105 330.54463124 C258.43582179 351.20662711 228.21248952 355.42093056 197.60236335 355.35238576 C196.13096411 355.35282286 194.65956495 355.35370031 193.1881662 355.35497493 C189.18137047 355.35719269 185.17460188 355.35323621 181.16780961 355.34819686 C176.83330098 355.34385316 172.49879371 355.34534156 168.16428351 355.34609914 C160.6665299 355.3466219 153.16878503 355.34350105 145.67103362 355.3378613 C134.83072328 355.32971264 123.99041715 355.32712764 113.15010408 355.32587331 C95.55975065 355.32368807 77.96940188 355.31704232 60.37905097 355.3075707 C43.29799652 355.29838291 26.21694333 355.29130876 9.13588691 355.28706288 C8.08190588 355.28680016 7.02792485 355.28653744 5.942005 355.28626675 C0.65416203 355.28496165 -4.63368095 355.28369796 -9.92152393 355.28245485 C-53.74605974 355.27209868 -97.57058693 355.25366924 -141.39511895 355.23213124 C-141.39511895 329.16213124 -141.39511895 303.09213124 -141.39511895 276.23213124 C-131.23351983 276.21754872 -121.07192071 276.2029662 -110.60239434 276.18794179 C-78.08799409 276.13918259 -45.57363718 276.07577299 -13.05928183 276.00314496 C-8.00871151 275.99187682 -2.95814091 275.98073836 2.09242988 275.96968007 C3.09790626 275.96747639 4.10338264 275.9652727 5.13932801 275.96300224 C21.41918676 275.92763125 37.69904546 275.90276599 53.97892838 275.88178422 C70.68397591 275.86002061 87.38897358 275.82696483 104.0939787 275.78342968 C114.40159452 275.75692267 124.70914821 275.73922029 135.01679642 275.7327852 C142.08543373 275.72752843 149.15399287 275.71130168 156.22258829 275.68646558 C160.30060296 275.67246056 164.37847772 275.66327605 168.45651793 275.66712308 C172.1931126 275.67054107 175.92940881 275.66012403 179.66594238 275.63889573 C181.65155095 275.63115951 183.63720008 275.6380579 185.62280959 275.64554828 C194.13305247 275.57802365 201.1250476 274.38263411 208.60488105 270.23213124 C209.79708843 268.4055932 209.79708843 268.4055932 210.60488105 266.23213124 C211.11728339 265.07777577 211.11728339 265.07777577 211.6400373 263.90009999 C216.43790711 252.31588962 216.95570446 240.88048206 212.8275373 228.99384999 C210.14606428 222.88285355 206.16803365 219.70192702 200.06808543 217.18570638 C195.69858299 215.98258683 191.72658428 215.95003442 187.21704841 215.96711659 C186.27935459 215.96273532 185.34166078 215.95835405 184.375552 215.95384002 C181.23702119 215.94153028 178.09865779 215.94332753 174.96010566 215.94502187 C172.70760579 215.93899646 170.45510817 215.93207191 168.20261359 215.92431569 C163.35070805 215.90942459 158.49884367 215.90067667 153.6469171 215.89660573 C145.95769767 215.88988224 138.26856571 215.86811149 130.57938361 215.84406972 C119.78116813 215.81171183 108.98295823 215.78487557 98.18471503 215.76386952 C97.49979393 215.76253453 96.81487283 215.76119954 96.10919655 215.7598241 C91.25359173 215.7504069 86.39798644 215.7412486 81.54238105 215.73213124 C76.02179146 215.72175041 70.50120219 215.71122516 64.98061347 215.70039296 C64.3010803 215.69906222 63.62154714 215.69773148 62.92142206 215.69636041 C51.53171266 215.67381568 40.14204008 215.64348257 28.75236303 215.60800052 C21.12788948 215.58480811 13.50347602 215.57094959 5.87897074 215.56450582 C1.10446196 215.55851181 -3.66999906 215.54436707 -8.44448304 215.52816129 C-10.63680159 215.52234932 -12.82913198 215.51979951 -15.02145791 215.5210011 C-53.40048434 215.53602133 -92.00135346 211.06885446 -121.1099627 183.67744374 C-141.91184791 162.07425325 -147.6246195 133.33963744 -147.39511895 104.23213124 C-146.68601515 80.10986347 -140.53308637 57.37325005 -125.39511895 38.23213124 C-124.52500176 37.11644765 -124.52500176 37.11644765 -123.63730645 35.97822499 C-105.92605405 14.67284815 -76.92757938 4.26689878 -50.03703523 1.68054318 C-33.34992651 0.23467882 -16.73873566 -0.04878493 0 0 Z " fill="#1C1F24" transform="translate(2409.3951189517975,1439.767868757248)"/>
<path d="M0 0 C2.61072292 -0.0068314 5.22144578 -0.01368849 7.83216858 -0.02056885 C15.56880946 -0.03877366 23.30543756 -0.04352202 31.04209709 -0.0459404 C33.24836681 -0.04687929 35.45463484 -0.04855093 37.66090393 -0.05044556 C84.89315792 -0.08941139 132.08340708 0.54695246 179.30078125 1.703125 C180.75599656 1.73870435 182.21121201 1.77427768 183.66642761 1.80984497 C184.38550706 1.82742167 185.10458651 1.84499836 185.84545624 1.86310768 C186.56310241 1.88064787 187.28074858 1.89818806 188.0201416 1.91625977 C188.73580099 1.93375463 189.45146038 1.9512495 190.18880641 1.96927452 C197.95133696 2.15890164 205.71391352 2.34653272 213.4765625 2.53125 C214.49552463 2.55554644 214.49552463 2.55554644 215.53507185 2.58033371 C240.85371208 3.18217996 266.16256149 3.49867424 291.48828125 3.453125 C292.7338574 3.45121973 292.7338574 3.45121973 294.00459671 3.44927597 C310.466642 3.42034532 326.9213892 3.25611251 343.37890625 2.86328125 C344.58869644 2.83501251 345.79848663 2.80674377 347.04493713 2.77761841 C352.46820288 2.64679509 357.88913852 2.49600946 363.31030273 2.29589844 C365.12353443 2.24021074 366.9367668 2.18454504 368.75 2.12890625 C369.53824158 2.09152847 370.32648315 2.0541507 371.13861084 2.01564026 C377.39998321 1.84363536 382.94765664 2.94827435 387.828125 7.17578125 C388.37597656 7.86542969 388.92382812 8.55507813 389.48828125 9.265625 C390.05417969 9.95785156 390.62007812 10.65007813 391.203125 11.36328125 C393.48120439 14.47335486 394.01598916 16.94297736 393.953125 20.83007812 C393.11862917 25.75198316 390.15846909 29.78054711 387.55078125 33.953125 C386.25488978 36.09798001 384.96068522 38.24385491 383.66796875 40.390625 C382.98959961 41.50695312 382.31123047 42.62328125 381.61230469 43.7734375 C378.53680604 48.86241817 375.60499539 54.03386422 372.66915894 59.20428467 C371.33024696 61.56143774 369.98648936 63.91581471 368.64299011 66.27035522 C367.62393028 68.0565625 366.60556749 69.84316543 365.58740234 71.62988281 C362.22426074 77.53114189 358.85700058 83.4300485 355.48828125 89.328125 C355.1568512 89.90848511 354.82542114 90.48884521 354.48394775 91.08679199 C349.08149035 100.54511973 343.64482584 109.98340884 338.19506836 119.41455078 C333.62351207 127.33075375 329.08122186 135.26335814 324.55078125 143.203125 C318.79574667 153.28903867 313.00832277 163.35575966 307.19750977 173.40966797 C302.2606644 181.9573706 297.36510283 190.52822787 292.47616577 199.10336304 C287.25224003 208.26257978 281.9578837 217.37874565 276.62866211 226.47705078 C272.15604304 234.12820349 267.7880453 241.8347975 263.44458008 249.55981445 C258.97285285 257.4965379 254.38710329 265.36322006 249.78125 273.22265625 C245.25583264 280.95901276 240.83502242 288.75026227 236.44311523 296.56298828 C232.56773382 303.44200998 228.60871212 310.26823622 224.61328125 317.078125 C219.74428702 325.37914985 214.98371388 333.73325472 210.30078125 342.140625 C206.1285632 349.63099157 201.90927009 357.08119575 197.52514648 364.44946289 C194.84503487 368.96736533 192.22196869 373.51589451 189.625 378.08203125 C189.2755835 378.69599258 188.92616699 379.30995392 188.56616211 379.94252014 C186.82230403 383.00809176 185.08195833 386.0755923 183.34619141 389.14575195 C180.26128183 394.5756071 177.14061814 399.98117374 173.875 405.3046875 C173.35381592 406.15627441 172.83263184 407.00786133 172.2956543 407.88525391 C169.8930049 411.07690821 167.12736394 413.41483365 163.55078125 415.203125 C160.828125 415.51171875 160.828125 415.51171875 157.48828125 415.640625 C156.40417969 415.70121094 155.32007813 415.76179688 154.203125 415.82421875 C147.80517589 414.73622527 143.43799236 411.77424127 139.59301758 406.53588867 C137.6105298 403.27271327 135.77960372 399.94793954 133.98828125 396.578125 C133.30243039 395.32816222 132.61422862 394.07948686 131.92382812 392.83203125 C130.49463445 390.24542419 129.07560166 387.65363225 127.66357422 385.05761719 C124.38633116 379.0526946 120.96068314 373.13342565 117.55078125 367.203125 C116.21849908 364.87588655 114.88848994 362.54735253 113.55859375 360.21875 C113.22897141 359.64196503 112.89934906 359.06518005 112.55973816 358.47091675 C110.53743276 354.93204428 108.51763456 351.39175143 106.4994812 347.85050964 C104.8089905 344.88429106 103.1176219 341.9185738 101.42578125 338.953125 C101.09322327 338.3701767 100.76066528 337.78722839 100.41802979 337.18661499 C95.80290078 329.10066531 91.13456313 321.04739729 86.42578125 313.015625 C81.09849183 303.927453 75.92314587 294.76256341 70.80029297 285.55786133 C66.80092946 278.38903293 62.70715245 271.2819447 58.55078125 264.203125 C53.17881332 255.05399211 47.960016 245.82909369 42.80078125 236.55859375 C38.80113673 229.38958805 34.70730081 222.28219737 30.55078125 215.203125 C25.78648562 207.08893401 21.12666274 198.92503312 16.55078125 190.703125 C11.45247201 181.54589185 6.2377007 172.4661933 0.93701172 163.42480469 C-3.5320061 155.7951369 -7.94283506 148.13335014 -12.32421875 140.453125 C-12.6575824 139.86880707 -12.99094604 139.28448914 -13.33441162 138.6824646 C-15.02925365 135.7112052 -16.72329859 132.73949228 -18.41699219 129.76757812 C-21.42392619 124.49219205 -24.43781492 119.22078062 -27.45123291 113.94909668 C-29.11751805 111.03393842 -30.78334502 108.11851837 -32.44921875 105.203125 C-33.11588323 104.03645708 -33.78254989 102.86979041 -34.44921875 101.703125 C-35.78255208 99.36979167 -37.11588542 97.03645833 -38.44921875 94.703125 C-38.94417343 93.83695808 -38.94417343 93.83695808 -39.4491272 92.95329285 C-40.1161078 91.7860717 -40.78307964 90.61884554 -41.45004272 89.45161438 C-43.11183442 86.54339022 -44.77377609 83.63525197 -46.43603516 80.72729492 C-49.49433741 75.37674448 -52.55143052 70.02551871 -55.60295105 64.6710968 C-56.65409347 62.82704239 -57.70604739 60.98345258 -58.75805664 59.13989258 C-60.12019431 56.75241941 -61.47835083 54.36274541 -62.83374023 51.97143555 C-65.70773055 46.91772336 -68.60237873 41.89799654 -71.7109375 36.984375 C-72.19062988 36.21569092 -72.67032227 35.44700684 -73.16455078 34.6550293 C-74.02132535 33.29440669 -74.89676382 31.94522852 -75.79638672 30.61254883 C-78.52003442 26.26593795 -78.7954642 23.17633826 -77.96704102 18.28442383 C-76.64711476 12.97920398 -73.88859742 8.11439076 -69.5546875 4.71875 C-61.50864355 0.33865507 -51.58841845 0.94845011 -42.66479492 0.65332031 C-41.43238917 0.61135151 -40.19998343 0.56938271 -38.93023205 0.52614212 C-25.95369259 0.11260561 -12.98221104 0.02169524 0 0 Z " fill="#1C1F24" transform="translate(916.44921875,762.796875)"/>
<path d="M0 0 C3.63152168 0.00522587 7.26303565 0.00032437 10.89455795 -0.00277233 C16.98189784 -0.00636551 23.06918851 -0.00173776 29.15652084 0.00790882 C36.09743798 0.0187842 43.03823742 0.01525526 49.97915173 0.00425601 C56.04306608 -0.00495223 62.10694594 -0.00603753 68.17086506 -0.00086665 C71.74678142 0.00218027 75.32264336 0.00287285 78.89855576 -0.00393963 C93.65368979 -0.02813781 108.35417447 0.22994617 123.07937241 1.17587757 C124.32636414 1.2554155 125.57335587 1.33495342 126.85813522 1.41690159 C168.55363366 4.33198844 207.85545542 16.73840275 240.16530991 43.83115101 C240.94370224 44.48337635 240.94370224 44.48337635 241.73781967 45.14877796 C275.19857226 73.69805551 288.63482973 116.01525738 292.10280991 158.58115101 C294.53391692 205.02542451 289.13268674 257.63808327 257.41530991 294.26865101 C256.55292709 295.26767445 255.69054428 296.26669788 254.80202866 297.29599476 C219.44416976 337.38296729 169.32517799 351.54244529 117.56155014 354.84958363 C104.63834377 355.60925788 91.6965552 355.56066919 78.75597 355.53730202 C74.94466037 355.53209677 71.13335838 355.53697237 67.32204819 355.54007435 C60.93189347 355.54367309 54.54178557 355.53902449 48.15163803 355.5293932 C40.85286135 355.5185167 33.55419657 355.52204523 26.25542259 355.53304601 C19.89264432 355.5422377 13.52989895 355.54334725 7.16711617 355.53816867 C3.40902892 355.53511305 -0.34900647 355.53445557 -4.10709 355.54124165 C-64.15034029 355.63458453 -126.46025896 349.1665943 -171.15304947 304.70810413 C-171.62549088 304.2330846 -172.09793228 303.75806507 -172.58469009 303.26865101 C-173.46640884 302.38693226 -174.34812759 301.50521351 -175.25656509 300.59677601 C-199.52636719 275.12102101 -211.17346232 239.6982523 -214.58469009 205.26865101 C-214.69554947 204.25286976 -214.80640884 203.23708851 -214.92062759 202.19052601 C-219.15901852 155.68277693 -213.11231705 101.45339871 -182.85422134 63.88974476 C-182.10527603 63.02478382 -181.35633072 62.15982288 -180.58469009 61.26865101 C-179.29111588 59.77011585 -179.29111588 59.77011585 -177.97140884 58.24130726 C-162.9688512 41.23215753 -145.29428836 28.48456519 -124.58469009 19.26865101 C-123.84057877 18.93381702 -123.09646744 18.59898304 -122.32980728 18.25400257 C-83.69237512 1.130047 -41.59568287 -0.07924401 0 0 Z M-92.34250259 104.55380726 C-113.31479105 129.94708336 -115.94245621 165.542898 -113.12253189 197.12021351 C-110.9428099 216.69284176 -105.02591341 236.42356659 -91.58469009 251.26865101 C-90.71457291 252.27605335 -90.71457291 252.27605335 -89.82687759 253.30380726 C-76.77724062 267.47276456 -57.24813468 273.90389357 -38.58469009 276.26865101 C-36.40739961 276.35798259 -34.22794626 276.40319868 -32.04883194 276.4090929 C-30.77641144 276.41480305 -29.50399094 276.42051319 -28.19301224 276.42639637 C-26.80029688 276.42764147 -25.40758142 276.42876662 -24.01486588 276.42978382 C-22.53404493 276.43441823 -21.05322517 276.43944372 -19.57240677 276.44482899 C-15.5614776 276.45790096 -11.55056514 276.46438855 -7.53961802 276.46883965 C-5.02596218 276.47178074 -2.5123108 276.4758876 0.00134277 276.48034382 C7.88812197 276.49400934 15.77489085 276.50367881 23.66168106 276.50754571 C32.72350789 276.51201462 41.78518301 276.52951207 50.84696376 276.5585463 C57.87746412 276.58027884 64.90792217 276.59025623 71.9384557 276.59158683 C76.12465652 276.59262725 80.31071455 276.5983695 84.49687958 276.61640644 C88.44503175 276.63308705 92.39293692 276.63494766 96.34111214 276.62626743 C97.77561043 276.62550742 99.21012311 276.62969949 100.64458656 276.63972569 C125.25875798 276.8014179 148.50675643 270.68735366 166.79030991 253.51865101 C187.96070022 230.99474393 191.11250925 199.47661484 190.50857162 170.02841663 C189.72686486 146.89644473 184.65550728 123.32014693 169.41530991 105.26865101 C168.52779037 104.21290882 168.52779037 104.21290882 167.62234116 103.13583851 C153.32894002 87.59290763 131.61022033 80.11243479 110.95025253 79.09861469 C101.48787023 78.82895944 92.02369774 78.84265098 82.55822754 78.8656745 C78.39689448 78.87336701 74.23557948 78.86619927 70.07424545 78.861516 C63.09121713 78.85608597 56.10828456 78.86317715 49.12527084 78.87753773 C41.0971061 78.89385891 33.06917007 78.88856844 25.04101086 78.87205851 C18.09946352 78.85836453 11.15798431 78.85656232 4.2164278 78.86437452 C0.09187774 78.8690079 -4.03256547 78.86979746 -8.15710831 78.85976505 C-39.29218072 78.79454139 -69.62815513 80.38723102 -92.34250259 104.55380726 Z " fill="#1C1F24" transform="translate(1927.5846900939941,1439.731348991394)"/>
<path d="M0 0 C2.28878274 0.0002829 4.57756558 0.00012214 6.86634827 -0.0004425 C13.00954502 -0.00072648 19.15272178 0.00510498 25.29591393 0.01213145 C31.74204927 0.01843216 38.18818518 0.01897406 44.63432312 0.02015686 C55.43102399 0.02290023 66.22771676 0.02912337 77.02441406 0.03808594 C88.13346318 0.04729807 99.24251032 0.05436019 110.3515625 0.05859375 C111.03902828 0.05885647 111.72649406 0.0591192 112.43479214 0.05938988 C115.88441333 0.06069514 119.33403454 0.0619588 122.78365576 0.06320179 C151.29547363 0.07352894 179.80728007 0.09194239 208.3190918 0.11352539 C208.3190918 26.18352539 208.3190918 52.25352539 208.3190918 79.11352539 C201.16809814 79.12810791 194.01710449 79.14269043 186.64941406 79.15771484 C163.71478268 79.20657176 140.78020695 79.27000819 117.8456398 79.34251167 C114.27746464 79.35377854 110.70928909 79.3649172 107.14111328 79.37597656 C106.0756668 79.37928209 106.0756668 79.37928209 104.98869615 79.38265439 C93.51887435 79.41793422 82.0490526 79.44285076 70.57919682 79.46387241 C58.79191228 79.48570897 47.00469756 79.51883316 35.21747249 79.56222695 C28.60441994 79.58625413 21.99142512 79.60486431 15.37832832 79.6111393 C9.14275152 79.61722117 2.9073712 79.63733252 -3.32813263 79.6678009 C-5.60597172 79.6765316 -7.88383654 79.68031413 -10.16169167 79.67853355 C-37.20919439 79.66407764 -63.38963357 83.34809172 -83.6809082 103.11352539 C-99.39825639 120.61922569 -105.74976246 144.40194154 -105.8840332 167.57446289 C-105.88973328 168.36390289 -105.89543335 169.1533429 -105.90130615 169.96670532 C-105.91069782 171.63233121 -105.91726673 173.29797519 -105.92114258 174.96362305 C-105.93074968 177.44753811 -105.96178736 179.93058848 -105.9934082 182.41430664 C-106.1623828 207.88691005 -100.74527701 233.99593367 -82.6809082 253.11352539 C-71.68283785 263.71007889 -58.51228906 269.84690602 -43.6809082 273.11352539 C-42.97291706 273.280763 -42.26492592 273.4480006 -41.5354805 273.62030602 C-30.36562561 275.88695007 -18.98939828 275.4224332 -7.64477539 275.43237305 C-5.20953543 275.44168128 -2.77429863 275.45185127 -0.33906555 275.46281433 C4.88436663 275.4844046 10.1077799 275.50005724 15.33124542 275.51018143 C22.88329422 275.52482937 30.43527592 275.55038289 37.98728511 275.57851271 C50.24288902 275.62387023 62.49850266 275.66053041 74.75415039 275.69165039 C86.6522797 275.72188133 98.55038531 275.75625232 110.44848633 275.79614258 C111.18312155 275.79860413 111.91775678 275.80106568 112.67465368 275.80360182 C116.36047189 275.8159773 120.04628983 275.82843366 123.73210764 275.84093022 C154.26107389 275.94433254 184.79005711 276.03197496 215.3190918 276.11352539 C215.3190918 302.18352539 215.3190918 328.25352539 215.3190918 355.11352539 C184.98335361 355.15778281 154.64763794 355.19464639 124.31187694 355.21565605 C120.7141028 355.21815686 117.11632873 355.22074557 113.51855469 355.22338867 C112.44437203 355.2241756 112.44437203 355.2241756 111.34848871 355.22497843 C99.81885307 355.23363349 88.28923779 355.24937581 76.75961415 355.26783098 C64.89095514 355.28666754 53.02230664 355.29767085 41.1536333 355.30170238 C34.50329805 355.30417812 27.85299962 355.31028676 21.20267677 355.3249855 C-62.47363187 355.50247884 -62.47363187 355.50247884 -100.6809082 343.11352539 C-101.71489746 342.78578125 -101.71489746 342.78578125 -102.76977539 342.45141602 C-120.23865437 336.81069503 -137.66764766 328.00296316 -151.6809082 316.11352539 C-152.84958831 315.15577287 -154.01889659 314.19878651 -155.1887207 313.24243164 C-183.20301616 290.07218169 -198.87020692 258.44733804 -205.6809082 223.11352539 C-205.92647461 221.90841309 -205.92647461 221.90841309 -206.17700195 220.67895508 C-211.58581373 193.02025852 -211.53040353 159.68528452 -205.6809082 132.11352539 C-205.47159668 131.12175293 -205.26228516 130.12998047 -205.04663086 129.1081543 C-202.3305926 116.65820398 -199.03196836 104.70748905 -193.6809082 93.11352539 C-193.38990234 92.47012207 -193.09889648 91.82671875 -192.79907227 91.16381836 C-184.44310415 72.8470057 -171.77563029 54.47931698 -155.6809082 42.11352539 C-155.17253418 41.71601074 -154.66416016 41.31849609 -154.14038086 40.90893555 C-109.11767525 5.89979056 -55.23812492 -0.0972439 0 0 Z " fill="#1C1F24" transform="translate(291.680908203125,1439.886474609375)"/>
<path d="M0 0 C33.99 0 67.98 0 103 0 C115.5401564 28.50035545 115.5401564 28.50035545 121.43481445 42.68676758 C123.34700518 47.28820935 125.26781849 51.8860545 127.1875 56.484375 C127.58336304 57.433125 127.97922607 58.381875 128.38708496 59.359375 C132.72640721 69.75296122 137.11260372 80.12663938 141.5 90.5 C147.69629843 105.15436599 153.86395164 119.8203058 160 134.5 C168.47103657 154.76366665 177.00853515 174.99891257 185.56054688 195.22851562 C189.36286581 204.22342194 193.16110417 213.22005161 196.95950317 222.21661377 C198.51626709 225.90365159 200.07330156 229.59057507 201.63063049 233.27737427 C202.35551506 234.994574 203.07968387 236.71207608 203.80308533 238.42990112 C205.62941578 242.76545741 207.46798532 247.09519226 209.32666016 251.41699219 C209.70019119 252.29048309 210.07372223 253.163974 210.45857239 254.06393433 C211.16944611 255.72574155 211.88447454 257.38577967 212.60429382 259.04373169 C215 264.66226542 215 264.66226542 215 268 C226.22 268 237.44 268 249 268 C249.99 264.7 250.98 261.4 252 258 C252.93441629 255.60779872 253.91326233 253.23234647 254.94140625 250.87890625 C255.2207048 250.2342189 255.50000336 249.58953156 255.7877655 248.92530823 C256.39139416 247.53296097 256.99740076 246.14164259 257.60559082 244.75128174 C259.29802892 240.88009136 260.97023873 237.00015826 262.64453125 233.12109375 C262.9991745 232.30048462 263.35381775 231.47987549 263.71920776 230.63439941 C267.8055023 221.16310023 271.77821659 211.64474182 275.75 202.125 C277.27680401 198.4685244 278.80424085 194.81231355 280.33203125 191.15625 C280.71520508 190.2392482 281.09837891 189.3222464 281.49316406 188.37745667 C285.78345067 178.11630028 290.10846637 167.86985697 294.4375 157.625 C294.83045258 156.69490112 295.22340515 155.76480225 295.62826538 154.80651855 C298.81694296 147.25942414 302.00735501 139.71306331 305.19787598 132.16674805 C307.98690513 125.56984554 310.77523825 118.97264946 313.5625 112.375 C313.95589569 111.44383362 314.34929138 110.51266724 314.75460815 109.55328369 C320.89917644 95.00598796 327.00700206 80.44358528 333.09790039 65.87374878 C339.22590313 51.21697156 345.38488814 36.57343566 351.5625 21.9375 C352.19248901 20.44404053 352.19248901 20.44404053 352.83520508 18.92041016 C354.01568089 16.12240059 355.19710683 13.32479448 356.37890625 10.52734375 C356.73215469 9.68997177 357.08540314 8.85259979 357.44935608 7.98985291 C359.88464177 2.23071647 359.88464177 2.23071647 361 0 C395.32 0 429.64 0 465 0 C462.08975095 7.56664752 459.1937007 15.08026167 456.0234375 22.53125 C455.66069229 23.38872833 455.29794708 24.24620667 454.92420959 25.12966919 C453.74305766 27.9205961 452.55900259 30.71028141 451.375 33.5 C450.53240175 35.48997352 449.69003999 37.48004719 448.84790039 39.47021484 C447.10121779 43.59741144 445.35353043 47.72418014 443.60498047 51.85058594 C439.54234609 61.43918038 435.4891573 71.03176307 431.4375 80.625 C430.84917389 82.0176709 430.84917389 82.0176709 430.2489624 83.43847656 C424.47238397 97.11443941 418.72618855 110.8028693 413 124.5 C404.51272117 144.80170093 395.95922142 165.07507472 387.39111328 185.34277344 C385.0079617 190.9804958 382.62672458 196.6190253 380.24609375 202.2578125 C379.85442017 203.18553467 379.46274658 204.11325684 379.0592041 205.0690918 C377.87277048 207.87938092 376.68637717 210.68968705 375.5 213.5 C371.13907639 223.83023931 366.77813119 234.16046706 362.41197205 244.48849487 C360.42002245 249.20046934 358.42866975 253.91269594 356.4375 258.625 C356.0470047 259.54903625 355.6565094 260.47307251 355.25418091 261.42510986 C350.86992451 271.80183736 346.49910743 282.18399639 342.15625 292.578125 C341.75809586 293.53081268 341.35994171 294.48350037 340.94972229 295.46505737 C339.06799732 299.96864044 337.18830423 304.47305325 335.31225586 308.97900391 C329.99823259 321.71181306 324.50318454 334.34267555 319 347 C261.58 347 204.16 347 145 347 C135.20360018 324.14173375 125.42677954 301.31423091 115.89453125 278.3515625 C111.55519856 267.90409334 107.15407653 257.48280591 102.75 247.0625 C102.15218719 245.64778915 102.15218719 245.64778915 101.54229736 244.20449829 C99.10216793 238.43037748 96.66093091 232.65672549 94.21929932 226.88323975 C90.62382951 218.38114243 87.02976275 209.87845285 83.4375 201.375 C82.84781433 199.97920212 82.84781433 199.97920212 82.24621582 198.5552063 C76.09528138 183.99285482 69.98128721 169.41531528 63.88397217 154.83044434 C58.13649817 141.08412229 52.36094409 127.3498992 46.5625 113.625 C46.16918488 112.69399475 45.77586975 111.7629895 45.37063599 110.80377197 C42.58138978 104.20210631 39.79084505 97.60098988 37 91 C31.85811422 78.83825853 26.7181101 66.67573767 21.58898926 54.50860596 C19.5346736 49.63596679 17.47786992 44.76439903 15.41699219 39.89453125 C13.28342538 34.85264944 11.15508559 29.80859056 9.03030396 24.76300049 C8.22365793 22.85005375 7.41514901 20.9378914 6.60470581 19.02655029 C5.48801926 16.39215572 4.37797979 13.7550567 3.26953125 11.1171875 C2.93617767 10.33508911 2.6028241 9.55299072 2.2593689 8.74719238 C0 3.34219246 0 3.34219246 0 0 Z " fill="#1C1F24" transform="translate(1040,1444)"/>
<path d="M0 0 C32.67 0 65.34 0 99 0 C99 77.22 99 154.44 99 234 C66.33 234 33.66 234 0 234 C0 156.78 0 79.56 0 0 Z " fill="#1C1F24" transform="translate(1563,1557)"/>
<path d="M0 0 C33 0 66 0 100 0 C100 25.41 100 50.82 100 77 C67 77 34 77 0 77 C0 51.59 0 26.18 0 0 Z " fill="#1C1F24" transform="translate(1563,1440)"/>
<path d="M0 0 C10.86013733 7.8893389 18.67459035 17.88314179 21.3125 31.3125 C23.22402686 43.98796449 21.84656625 56.67993311 14.8125 67.65234375 C6.55493093 78.83446853 -3.82406514 86.79443796 -17.6875 89.3125 C-20.65253689 89.59307125 -23.58545877 89.64700491 -26.5625 89.625 C-27.74767212 89.61762817 -27.74767212 89.61762817 -28.95678711 89.61010742 C-34.94217974 89.49014118 -40.17793198 88.78230636 -45.6875 86.3125 C-46.42871094 85.98378906 -47.16992188 85.65507813 -47.93359375 85.31640625 C-60.23549235 79.15479673 -68.05855475 69.40923717 -73.0625 56.8125 C-76.38397233 46.0559327 -76.34503811 32.65082323 -71.6875 22.3125 C-71.2853125 21.41273437 -70.883125 20.51296875 -70.46875 19.5859375 C-64.63801513 7.82728884 -55.50280231 -0.1264978 -43.4375 -5 C-29.05585658 -9.47145005 -12.80354313 -7.8706712 0 0 Z M-57.4375 14.0625 C-64.22896603 22.33516744 -68.26398802 32.35270087 -67.94140625 43.1484375 C-66.61260715 54.47389442 -62.05216299 64.53864964 -53.6875 72.3125 C-45.13154579 79.06009796 -35.13853682 83.12102785 -24.09765625 82.66015625 C-10.24416431 80.66184056 -0.03072419 74.41788004 8.3125 63.3125 C14.20805323 54.02306746 15.74565853 43.45380389 13.84765625 32.671875 C11.37199763 23.35519522 6.15100437 14.10322901 -1.6875 8.3125 C-20.74353244 -2.66782354 -41.46734951 -2.93577177 -57.4375 14.0625 Z " fill="#1C1F24" transform="translate(2782.6875,1359.6875)"/>
<path d="M0 0 C7.486875 -0.12375 7.486875 -0.12375 15.125 -0.25 C17.47069092 -0.30462402 17.47069092 -0.30462402 19.86376953 -0.36035156 C21.10755371 -0.3703418 22.35133789 -0.38033203 23.6328125 -0.390625 C24.90012207 -0.41157227 26.16743164 -0.43251953 27.47314453 -0.45410156 C31.65357099 0.08415077 33.75089643 1.36237331 37 4 C40.10899843 8.66349765 39.74065276 13.54218012 39 19 C37.60069559 21.64746444 36.2591478 22.96676698 34 25 C34.63550781 25.83273437 35.27101563 26.66546875 35.92578125 27.5234375 C38.3025656 31.09123279 38.75538599 34.35520018 39.1875 38.625 C39.75408489 44.37527858 39.75408489 44.37527858 41 50 C38.36 50 35.72 50 33 50 C31.39032426 44.82604225 30.38988868 39.71133296 29.5625 34.35546875 C29.17590495 31.82688857 29.17590495 31.82688857 27 30 C24.96939341 29.63105418 24.96939341 29.63105418 22.6484375 29.5859375 C21.88192871 29.55032715 21.11541992 29.5147168 20.32568359 29.47802734 C19.35195801 29.44402832 18.37823242 29.4100293 17.375 29.375 C14.28125 29.25125 11.1875 29.1275 8 29 C8 35.93 8 42.86 8 50 C5.36 50 2.72 50 0 50 C0 33.5 0 17 0 0 Z M8 6 C8 11.28 8 16.56 8 22 C10.91691525 22.05401695 13.83282724 22.09368066 16.75 22.125 C17.575 22.14175781 18.4 22.15851563 19.25 22.17578125 C20.04921875 22.18222656 20.8484375 22.18867187 21.671875 22.1953125 C22.77160645 22.21102295 22.77160645 22.21102295 23.89355469 22.22705078 C26.33307165 21.96409867 27.90749823 21.26283328 30 20 C32.0815902 17.32366974 31.99587591 15.88246332 31.875 12.4375 C31.29068449 9.08996975 31.29068449 9.08996975 29.5546875 7.296875 C25.56048272 5.26923588 21.6563142 5.68558253 17.25 5.8125 C16.36183594 5.82603516 15.47367188 5.83957031 14.55859375 5.85351562 C12.372135 5.88878109 10.18598928 5.94258588 8 6 Z " fill="#1C1F24" transform="translate(2739,1375)"/>
</svg>
