<?xml version="1.0" encoding="UTF-8"?>
<svg version="1.1" xmlns="http://www.w3.org/2000/svg" width="2888" height="1988">
<path d="M0 0 C1.31564941 -0.00620361 2.63129883 -0.01240723 3.98681641 -0.01879883 C15.05202146 0.13022016 29.16293806 0.64065517 37.75 8.5 C41.31723961 12.23405298 42.31873215 14.58977935 42.3125 19.75 C42.06883741 26.35104094 40.49274985 30.1714837 36.75 35.5 C35.71049613 37.04806741 34.67126873 38.59632396 33.63525391 40.14672852 C32.81596661 41.37165153 31.99389165 42.59471338 31.16943359 43.81616211 C2.68333699 86.25911731 -21.36480699 131.95311708 -45.39550781 177.02490234 C-49.10285462 183.97202905 -52.82869769 190.90926297 -56.55053711 197.84863281 C-59.81112608 203.93257515 -63.06062886 210.0220941 -66.29296875 216.12109375 C-72.97698655 228.72434862 -79.73551273 241.26598914 -86.8112793 253.65576172 C-89.87663073 259.03221105 -92.83654778 264.44471834 -95.6875 269.9375 C-100.90902871 279.95876261 -106.68999289 289.65333911 -112.42382812 299.38720703 C-114.20695084 302.42662075 -115.97364414 305.47491288 -117.734375 308.52734375 C-164.90842974 390.22274311 -164.90842974 390.22274311 -193.25 413.5 C-194.29427927 414.39191721 -195.33854931 415.28384522 -196.3828125 416.17578125 C-231.51530458 445.70327008 -277.49898984 461.06473533 -323.16643119 460.65337336 C-326.18927647 460.62631009 -329.2119836 460.61203616 -332.23492622 460.60035992 C-335.6837831 460.58667135 -339.13261461 460.57189614 -342.58144987 460.55348068 C-352.47817864 460.50077096 -362.37457422 460.48767111 -372.27142334 460.48770142 C-373.06546017 460.48767209 -373.85949699 460.48764277 -374.67759554 460.48761255 C-377.98274898 460.48752486 -381.28790238 460.48754347 -384.59305581 460.48774717 C-394.34938315 460.48817307 -404.1057053 460.4824895 -413.86203003 460.4757843 C-414.78259794 460.47515985 -415.70316585 460.4745354 -416.65162976 460.47389203 C-442.5000555 460.45583441 -468.34845867 460.41659967 -494.19685286 460.37314438 C-499.41411255 460.36438599 -504.63137256 460.35583438 -509.84863281 460.34741211 C-511.40545626 460.34489352 -511.40545626 460.34489352 -512.99373068 460.34232404 C-529.92299444 460.31546098 -546.85222425 460.30654264 -563.78150712 460.30395857 C-581.25989393 460.30089992 -598.73818336 460.27899477 -616.21652615 460.23947543 C-626.95269993 460.21578593 -637.68867904 460.20664278 -648.42487533 460.21648689 C-655.75473717 460.22179971 -663.08442336 460.20878748 -670.41423516 460.1813371 C-674.63659051 460.16606118 -678.85855252 460.15881695 -683.08091927 460.17340279 C-686.94842719 460.18658544 -690.81517349 460.17660053 -694.68259586 460.14856227 C-696.07701208 460.14247068 -697.47149639 460.14470785 -698.86587714 460.15637074 C-709.09114183 460.23518094 -716.31494583 458.61254514 -724.25 452 C-728.01777273 447.29028409 -728.83119954 443.50572862 -728.25 437.5 C-724.72457701 424.13716913 -716.27352872 412.85065172 -708.63427734 401.55664062 C-707.19958948 399.42510437 -705.77965167 397.284372 -704.36328125 395.140625 C-697.51816403 384.78675139 -690.50422545 374.57172474 -683.25 364.5 C-682.41831299 363.34516113 -682.41831299 363.34516113 -681.56982422 362.16699219 C-673.90697725 351.56488216 -665.9628836 341.26424577 -657.63085938 331.18066406 C-655.76780455 328.9131129 -653.94562664 326.61418653 -652.125 324.3125 C-647.76308493 318.84641814 -643.2380642 313.52163225 -638.69873047 308.203125 C-637.27262688 306.52660012 -635.8561717 304.84234708 -634.44140625 303.15625 C-627.02377496 294.3556705 -619.20700303 285.97710518 -611.27587891 277.63916016 C-609.3017507 275.55464445 -607.34154021 273.4580877 -605.38671875 271.35546875 C-584.66351376 249.06718825 -584.66351376 249.06718825 -574.0390625 240.0703125 C-572.0168372 238.29534619 -570.13785373 236.41700977 -568.25 234.5 C-565.1001997 231.30738688 -561.83780511 228.32838721 -558.4375 225.40625 C-555.89488601 223.19054352 -553.41889802 220.90901408 -550.9375 218.625 C-546.44851943 214.53119791 -541.83756524 210.64530333 -537.109375 206.83203125 C-534.61220461 204.79540458 -532.15823951 202.71712873 -529.71557617 200.61572266 C-522.90726274 194.7698738 -515.85509443 189.29896621 -508.69921875 183.88671875 C-505.71779226 181.62885674 -502.76468534 179.34037861 -499.83203125 177.01953125 C-490.75941248 169.84576315 -481.5029386 163.11175698 -471.90625 156.65625 C-468.15208828 154.12857229 -464.46166641 151.52442954 -460.78710938 148.8828125 C-452.24255593 142.74663087 -443.42923955 137.21146372 -434.40820312 131.80712891 C-431.70436214 130.1695311 -429.03532907 128.48066744 -426.36694336 126.78613281 C-416.19639251 120.33607577 -405.75417786 114.38676804 -395.25 108.5 C-394.42387207 108.03400391 -393.59774414 107.56800781 -392.74658203 107.08789062 C-329.84370247 71.69956163 -262.19836768 44.33437404 -192.25 26.5 C-191.48834534 26.30555298 -190.72669067 26.11110596 -189.94195557 25.9107666 C-165.57861975 19.71688174 -141.05977941 14.55543193 -116.25 10.5 C-115.17051086 10.3233783 -115.17051086 10.3233783 -114.06921387 10.14318848 C-76.59266735 4.07478082 -37.96944563 0.05883305 0 0 Z " fill="#FFFFFF" transform="translate(1906.25,775.5)"/>
<path d="M0 0 C3.80260304 -0.00062649 7.60518446 -0.0050781 11.40778351 -0.01040649 C37.08522673 -0.03812313 62.72871445 0.25257985 88.38990021 1.20639038 C90.0132579 1.26446145 90.0132579 1.26446145 91.66941071 1.32370567 C101.45570283 1.68327293 111.24303142 2.08234172 120.98365021 3.13095093 C122.78865997 3.32481636 122.78865997 3.32481636 124.63013458 3.52259827 C129.16499146 4.62058673 132.3697041 6.84408357 135.70240021 10.06185913 C138.09209712 14.58970591 138.26848764 18.9294652 136.94849396 23.74935913 C131.65682257 35.37828517 125.27925599 46.28788893 118.71851349 57.24252319 C116.95090276 60.20946606 115.21055532 63.19051569 113.47974396 66.17904663 C107.06060231 77.23618664 100.31959132 87.9086226 92.88990021 98.31185913 C92.02606966 99.53542985 91.16278437 100.7593857 90.30005646 101.98373413 C84.96579487 109.52894038 79.48322431 116.95625483 73.88990021 124.31185913 C73.48771271 124.84166382 73.08552521 125.37146851 72.67115021 125.91732788 C61.36292861 140.79470692 49.48798429 155.239648 36.91724396 169.06967163 C35.15022822 171.02394338 33.42076491 173.00245651 31.70240021 174.99935913 C21.27290426 186.89223647 10.18495508 198.12074707 -0.98509979 209.31185913 C-1.62038605 209.94973358 -2.2556723 210.58760803 -2.91020966 211.24481201 C-15.26588754 223.64011312 -15.26588754 223.64011312 -21.46361542 228.91049194 C-24.02472803 231.09032385 -26.46171679 233.39462405 -28.92259979 235.68685913 C-33.5205436 239.9354725 -38.25780707 243.94568052 -43.13744354 247.87045288 C-46.65279148 250.75756518 -50.0653246 253.75038591 -53.48509979 256.74935913 C-59.53663676 262.02958464 -65.74574316 267.01836932 -72.16918182 271.84359741 C-74.42002269 273.54630898 -76.65384478 275.27018736 -78.88744354 276.99545288 C-118.82491917 307.77691606 -161.61618316 334.63237381 -206.11009979 358.31185913 C-207.13409882 358.85809937 -208.15809784 359.4043396 -209.21312714 359.96713257 C-285.6955791 400.61401397 -368.44654892 429.98504948 -595.49999237 461.49716187 C-597.70419752 461.49939109 -599.90793256 461.51779158 -602.11205292 461.53646851 C-613.41573934 461.58193788 -622.76346505 461.31543254 -631.42259979 453.12435913 C-633.77529917 449.2031935 -634.42628349 445.88104062 -634.11009979 441.31185913 C-632.71457122 437.50637863 -630.67434513 434.18872608 -628.54759979 430.74935913 C-627.6638266 429.25650391 -627.6638266 429.25650391 -626.7621994 427.73348999 C-625.51859669 425.63529047 -624.26554787 423.54266416 -623.00365448 421.45541382 C-620.58873908 417.44633044 -618.24309474 413.39908058 -615.89745331 409.34921265 C-614.1548117 406.34368003 -612.40175 403.34447099 -610.64525604 400.34701538 C-607.12539569 394.34003317 -603.61675529 388.32655691 -600.11009979 382.31185913 C-596.62396879 376.33403834 -593.13685751 370.35679914 -589.64525604 364.38217163 C-583.6423292 354.10653356 -577.66822192 343.8154735 -571.73509979 333.49935913 C-566.59347631 324.56315739 -561.38030517 315.67280301 -556.11009979 306.81185913 C-548.32162716 293.71447845 -540.6981894 280.52608364 -533.11009979 267.31185913 C-524.86657226 252.95622693 -516.55402708 238.64845144 -508.09300995 224.41976929 C-500.98462717 212.44930103 -494.04274987 200.38467314 -487.11009979 188.31185913 C-478.86657226 173.95622693 -470.55402708 159.64845144 -462.09300995 145.41976929 C-453.64171071 131.18783884 -445.414253 116.82714162 -437.18822479 102.46420288 C-433.51989254 96.06579987 -429.82688244 89.68223387 -426.11009979 83.31185913 C-425.63201874 82.48879272 -425.15393768 81.66572632 -424.66136932 80.81771851 C-417.20716804 68.07352726 -408.5317308 57.74621002 -397.11009979 48.31185913 C-395.8068576 47.1768396 -395.8068576 47.1768396 -394.47728729 46.01889038 C-365.46086091 21.06476369 -326.91540941 2.50974452 -288.18462372 3.08595276 C-285.45660449 3.12604071 -282.72898781 3.14617006 -280.00072479 3.16207886 C-275.96912584 3.18704761 -271.93768111 3.21922016 -267.90618134 3.25692749 C-256.57852653 3.35881689 -245.25066824 3.39117764 -233.92259979 3.40560913 C-232.70691692 3.40725571 -231.49123405 3.40890228 -230.23871231 3.41059875 C-210.02098039 3.42521752 -189.82129533 3.12384006 -169.61009979 2.65560913 C-168.89795838 2.63913133 -168.18581697 2.62265354 -167.45209551 2.60567641 C-158.68462135 2.40201416 -149.91737421 2.18927638 -141.15016735 1.97446018 C-94.09806239 0.82302801 -47.0674087 -0.00181383 0 0 Z " fill="#FFFFFF" transform="translate(1497.1100997924805,224.68814086914063)"/>
<path d="M0 0 C39.83977008 -0.04414003 79.67951698 -0.08104945 119.51930454 -0.10213066 C124.22909695 -0.10463189 128.93888931 -0.10722056 133.64868164 -0.10986328 C134.58626602 -0.1103879 135.52385039 -0.11091252 136.48984642 -0.11145304 C151.64560771 -0.12014157 166.80135373 -0.13590296 181.95710599 -0.15430559 C197.52310794 -0.1730479 213.08910194 -0.18412586 228.65511471 -0.18817699 C238.2502566 -0.19091308 247.84535534 -0.19953619 257.44048394 -0.21583293 C264.03164763 -0.22645334 270.6227892 -0.22958925 277.21396082 -0.22700275 C281.00942082 -0.22572929 284.80480571 -0.22759885 288.60025215 -0.23841095 C321.66561584 -0.327953 357.01472359 0.99614998 382.40234375 25.21484375 C406.65427455 51.21728985 408.17052774 85.79020076 408.11352539 119.43701172 C408.11324288 121.7838745 408.11340249 124.13073737 408.1139679 126.4776001 C408.11425339 132.81128763 408.10839676 139.14495602 408.10139394 145.47863913 C408.09575594 151.43847511 408.09476872 157.39831042 408.09374207 163.35814871 C408.09156064 175.15234361 408.08492533 186.94653154 408.07543945 198.74072266 C408.06624173 210.18863897 408.05917247 221.63655339 408.05493164 233.08447266 C408.05453756 234.14531288 408.05453756 234.14531288 408.05413551 235.22758423 C408.05283035 238.77600429 408.05156667 242.32442437 408.05032361 245.87284446 C408.03997933 275.24856746 408.02231087 304.62428365 408 334 C363.33628364 334.04583075 318.67256978 334.08104624 274.00883452 334.10213066 C268.72952245 334.10463191 263.45021043 334.10722057 258.17089844 334.10986328 C256.5944503 334.11065021 256.5944503 334.11065021 254.98615472 334.11145304 C237.99457636 334.12014308 221.00301161 334.1359053 204.01144131 334.15430559 C186.56170375 334.17304369 169.11197329 334.18412498 151.66222608 334.18817699 C140.90473588 334.19091395 130.14728414 334.19954182 119.38980578 334.21583293 C112.00156246 334.22644813 104.61333887 334.22959041 97.22508849 334.22700275 C92.96977231 334.22572849 88.71452309 334.22760821 84.45921898 334.23841095 C47.88049442 334.3264935 10.56931969 333.10099755 -17.21484375 305.91015625 C-38.03710341 284.6301073 -43.54677942 256.6867193 -43.35107422 227.99194336 C-42.78794879 200.11329681 -35.08905121 175.87311748 -15.625 155.3125 C5.81204158 134.78665259 36.48929036 128.79416721 65.15544128 128.87974548 C66.22248002 128.87889106 67.28951875 128.87803663 68.38889199 128.87715632 C71.93400218 128.87552035 75.47906415 128.88099183 79.02416992 128.88647461 C81.57748412 128.88675691 84.1307984 128.8865979 86.68411255 128.8860321 C92.16567273 128.88580501 97.64721761 128.88862576 103.12877464 128.89426994 C111.05401361 128.90242496 118.97924684 128.90500425 126.90448955 128.90625793 C139.76518707 128.90844218 152.62587821 128.91508523 165.48657227 128.92456055 C177.97355111 128.93375091 190.46052822 128.94082379 202.94750977 128.94506836 C204.10362261 128.94546244 204.10362261 128.94546244 205.28309127 128.94586449 C209.14998873 128.94716961 213.01688621 128.94843329 216.8837837 128.94967639 C248.92252709 128.96002947 280.96126266 128.97763068 313 129 C312.86548089 125.47363531 312.72073564 121.94775996 312.57421875 118.421875 C312.51760071 116.93276611 312.51760071 116.93276611 312.45983887 115.41357422 C311.98563225 104.26393567 310.40064831 93.81478493 303 85 C289.36275326 73.1207777 268.56751564 75.55649317 251.79931641 75.56762695 C249.04850499 75.56024911 246.29771695 75.54840061 243.54692078 75.53674316 C237.64798017 75.51406116 231.74909819 75.50209014 225.85011673 75.49761391 C217.32143519 75.49112639 208.79285918 75.46814363 200.2642204 75.44127061 C186.42355767 75.39810172 172.58289941 75.36807861 158.7421875 75.34643555 C145.30564174 75.32539608 131.86913249 75.29809521 118.43261719 75.26245117 C117.60292355 75.26025235 116.77322991 75.25805352 115.91839404 75.25578807 C111.75562677 75.24471767 107.59285983 75.233525 103.43009305 75.22227156 C68.95341757 75.12922672 34.47675275 75.06000627 0 75 C0 50.25 0 25.5 0 0 Z M61.25390625 214.10546875 C56.3502384 221.51443731 56.10848419 229.27098259 57 238 C58.65866284 244.42200229 61.2676482 250.66901369 67.05950582 254.28623456 C73.31906766 257.64189249 78.18520674 258.71579546 85.23794556 258.60127258 C86.21837527 258.60554471 87.19880498 258.60981683 88.20894468 258.61421841 C91.46741015 258.6224007 94.72456492 258.59504161 97.98291016 258.56762695 C100.32918263 258.56621546 102.67545732 258.56701044 105.02172852 258.56983948 C111.3723683 258.57127105 117.72253362 258.54192237 124.07306337 258.50696969 C130.04308414 258.47883797 136.01310601 258.47384886 141.98318045 258.46871033 C153.80186436 258.45778861 165.62037495 258.42457238 177.43896484 258.37719727 C188.91421649 258.33124649 200.38942092 258.29588168 211.86474609 258.2746582 C212.57302381 258.27334459 213.28130152 258.27203097 214.01104219 258.27067754 C217.56454451 258.26415198 221.11804716 258.25783353 224.67155004 258.25161803 C254.11449715 258.19985119 283.55719644 258.10771192 313 258 C313 240.51 313 223.02 313 205 C282.68898745 204.91179191 252.37806301 204.8379454 222.06696004 204.79573868 C218.48718537 204.79073595 214.90741098 204.78555865 211.32763672 204.78027344 C210.61497827 204.7792242 209.90231982 204.77817495 209.16806567 204.77709392 C197.63391132 204.75969613 186.09983685 204.72816191 174.56572986 204.69138882 C162.7276863 204.65396193 150.88968453 204.63176046 139.05158424 204.62364602 C132.40354359 204.61865354 125.75565146 204.60616407 119.10766602 204.57707977 C112.84997872 204.54992486 106.59254706 204.54155532 100.33480644 204.54756927 C98.03864592 204.54646909 95.74247682 204.53851593 93.44636726 204.5231781 C90.309065 204.50324962 87.17272536 204.5080719 84.03540039 204.51898193 C83.12876648 204.50733057 82.22213257 204.4956792 81.2880249 204.48367476 C72.82090982 204.56315258 66.46904749 207.35562655 61.25390625 214.10546875 Z " fill="#FFFFFF" transform="translate(619,1426)"/>
<path d="M0 0 C3.8381111 0.01314934 7.67621056 0.00855779 11.5143379 0.00629318 C18.13892074 0.00473218 24.76341386 0.01401715 31.38797414 0.03100669 C40.9655573 0.05555345 50.54309777 0.06321785 60.12070896 0.06697067 C75.66570551 0.07351079 91.2106544 0.09340518 106.75562513 0.1218785 C121.84188575 0.14948262 136.92813336 0.17068496 152.01441419 0.18340194 C153.41301332 0.1845842 153.41301332 0.1845842 154.83986697 0.18579034 C159.51818194 0.1897059 164.196497 0.19349692 168.87481213 0.19722605 C207.58862482 0.22824588 246.30234922 0.28350748 285.01612318 0.34819686 C285.01612318 25.09819686 285.01612318 49.84819686 285.01612318 75.34819686 C276.07147962 75.36277938 267.12683607 75.3773619 257.91114271 75.39238632 C229.28027585 75.44116075 200.64945813 75.50457458 172.01864219 75.57718315 C167.57021166 75.58845109 163.1217808 75.59958958 158.67334974 75.61064804 C157.34496551 75.61395356 157.34496551 75.61395356 155.98974524 75.61732586 C141.65698761 75.65268261 127.32423002 75.67755591 112.99144496 75.69854388 C98.28086038 75.72031886 83.57033231 75.75338541 68.85979581 75.79689842 C59.78516662 75.8233859 50.71060783 75.84110265 41.63594191 75.8475429 C35.41015226 75.85280567 29.18445114 75.86905248 22.95870896 75.89386252 C19.36865459 75.9078471 15.77875858 75.91705976 12.18867528 75.91320503 C8.2903109 75.90914636 4.39224985 75.92825422 0.4939369 75.94946945 C-0.63254633 75.94462187 -1.75902956 75.9397743 -2.91964865 75.93477982 C-11.11656906 76.0082896 -18.28593858 77.08834572 -25.35887682 81.41069686 C-31.77781436 88.59379363 -32.64668644 96.29021341 -32.37059557 105.71538436 C-31.67657517 112.23497002 -29.77052218 117.1269621 -25.67137682 122.22319686 C-18.64520214 127.77877685 -12.77481657 129.49682677 -3.86069262 129.492957 C-2.91527828 129.49648384 -1.96986394 129.50001069 -0.99580067 129.50364441 C2.18664563 129.51435728 5.36906202 129.51801703 8.55152357 129.52178085 C10.82815145 129.52808463 13.10477809 129.53485024 15.38140333 129.54204452 C20.2939278 129.55673392 25.20644745 129.5684513 30.11898458 129.57799232 C37.89953436 129.59344159 45.68004342 129.61739488 53.46056592 129.64288986 C64.38345707 129.67803312 75.30635113 129.71111231 86.22925794 129.74101913 C86.92264371 129.74291962 87.61602947 129.74482011 88.33042692 129.7467782 C98.14029112 129.77353093 107.95016022 129.79742312 117.76003443 129.8201632 C118.79329128 129.82255915 118.79329128 129.82255915 119.847422 129.8250035 C120.53541354 129.82659697 121.22340508 129.82819044 121.93224484 129.82983219 C133.45179967 129.85670953 144.97131413 129.89127147 156.49082977 129.93165725 C164.21062973 129.95829996 171.9303846 129.97628557 179.65022135 129.9876945 C184.47921873 129.99688667 189.30816196 130.01428024 194.13712728 130.03387344 C196.35972709 130.04128384 198.58234086 130.04542602 200.80495298 130.04586875 C216.7771169 130.05161406 233.06871212 130.17052923 248.57862318 134.47319686 C249.35544446 134.68565048 250.13226575 134.89810409 250.93262708 135.11699569 C273.5253239 141.64830563 291.22642707 154.65172947 303.23487318 175.07085311 C313.75002015 194.41780116 317.24959465 217.48688327 316.01612318 239.34819686 C315.95448987 240.45252059 315.95448987 240.45252059 315.89161146 241.5791539 C314.12720649 270.34515571 305.74818708 297.25239718 284.01612318 317.34819686 C263.06066594 335.45509149 236.04716611 340.70913909 209.03884351 340.5887059 C207.59459119 340.58958067 206.15033918 340.59133663 204.70608884 340.59388423 C200.78359118 340.59830839 196.86120492 340.59042299 192.93872142 340.58032811 C188.69150192 340.57162384 184.44428781 340.57461866 180.1970619 340.57613266 C172.85375537 340.57717713 165.51048462 340.57094652 158.16718709 340.55965698 C147.55025088 340.54334526 136.93333181 340.53818819 126.31638443 340.53568099 C109.08762545 340.53131276 91.8588855 340.51802738 74.63013685 340.49907577 C57.90227323 340.48069436 41.17441479 340.46654894 24.4465431 340.45806015 C23.41399648 340.4575347 22.38144987 340.45700925 21.31761397 340.45646788 C16.13720079 340.45385765 10.95678758 340.45133027 5.77637434 340.44884408 C-37.14372629 340.42813872 -80.06379169 340.39128366 -122.98387682 340.34819686 C-122.98387682 315.59819686 -122.98387682 290.84819686 -122.98387682 265.34819686 C-113.31220202 265.33361434 -103.64052722 265.31903183 -93.67577136 265.30400741 C-62.72182383 265.25523849 -31.76792177 265.19182619 -0.81402136 265.11921058 C3.99491979 265.10794257 8.80386123 265.09680409 13.61280286 265.08574569 C14.5701671 265.08354201 15.52753134 265.08133833 16.51390661 265.07906786 C32.01063969 265.04370596 47.50737273 265.01883557 63.00413118 264.99784984 C78.90800626 264.97607898 94.81182904 264.94301632 110.71565962 264.8994953 C120.52731514 264.87300077 130.3389055 264.8552892 140.15059502 264.84885082 C146.88097611 264.84359023 153.61127524 264.82735066 160.34161238 264.80253121 C164.22330194 264.78853925 168.10484484 264.77933677 171.98656118 264.7831887 C176.20025507 264.78724316 180.41353434 264.76815219 184.62717664 264.74692428 C185.84704263 264.75177186 187.06690862 264.75661943 188.32374024 264.76161391 C197.44420718 264.6858301 206.98884304 263.72177652 214.01612318 257.34819686 C220.15933607 247.64926564 221.58248853 236.76741065 219.48487318 225.49272811 C217.69680672 219.06929373 215.42907538 213.58599509 209.51612318 210.03569686 C204.02306173 207.38725652 199.42738441 207.20060439 193.38251722 207.20343673 C192.50173513 207.19990989 191.62095304 207.19638304 190.71348059 207.19274932 C187.75543689 207.18205655 184.79742539 207.17838009 181.83936536 207.17461288 C179.72010637 207.16830727 177.6008487 207.16154147 175.48159254 207.15434921 C170.91068521 207.13966846 166.33978303 207.12794726 161.76886213 207.11840141 C154.5200612 207.10292748 147.27130367 207.07897188 140.02253187 207.05350387 C119.40632862 206.98237925 98.79009946 206.92280903 78.17383802 206.87139022 C66.79245745 206.84292856 55.41111906 206.80745325 44.02978289 206.76473647 C36.84771192 206.73819615 29.66568863 206.72014814 22.48357856 206.70869923 C17.97550549 206.69945943 13.46748927 206.68204489 8.95945013 206.66252029 C6.89578828 206.65515495 4.83211173 206.65097055 2.76843679 206.65052497 C-8.12347579 206.64628108 -18.92269859 206.32665449 -29.78166735 205.43863571 C-31.24136647 205.31953443 -31.24136647 205.31953443 -32.73055446 205.19802707 C-61.7438897 202.6109831 -89.77773193 192.16320907 -108.98387682 169.34819686 C-127.30040429 143.78591236 -131.52068482 111.84898197 -126.79637682 81.22319686 C-122.62228008 57.0119068 -111.02662867 35.28889856 -90.85887682 20.78569686 C-81.31646433 14.31290052 -71.40553795 9.54609615 -60.42137682 6.09819686 C-59.6981322 5.86399032 -58.97488757 5.62978378 -58.22972643 5.38848007 C-39.27189057 -0.19418325 -19.57347617 -0.08439375 0 0 Z " fill="#FFFFFF" transform="translate(2357.983876824379,1422.651803135872)"/>
<path d="M0 0 C2.61473118 -0.00108457 5.22946217 -0.00282132 7.8441925 -0.00518799 C53.10939008 -0.04498697 98.33570383 0.66237867 143.58689117 1.74838257 C145.071397 1.78396182 146.55590297 1.81953514 148.04040909 1.85510254 C148.77399322 1.87267923 149.50757736 1.89025593 150.26339132 1.90836525 C150.99553293 1.92590544 151.72767454 1.94344563 152.48200226 1.96151733 C153.57724324 1.98775964 153.57724324 1.98775964 154.6946103 2.01453209 C162.60396818 2.20391801 170.51336612 2.39154258 178.42282867 2.57650757 C179.11434816 2.59270519 179.80586764 2.60890282 180.51834226 2.62559128 C204.75008678 3.19157256 228.97328425 3.54476351 253.21189117 3.49838257 C253.95802547 3.49725967 254.70415977 3.49613678 255.47290421 3.49497986 C270.66504477 3.46907357 285.84891984 3.27931761 301.03610992 2.87338257 C302.23539124 2.84274719 303.43467255 2.81211182 304.67029572 2.7805481 C310.12490182 2.63863458 315.57633539 2.47505444 321.02829742 2.25326538 C322.87463823 2.19392903 324.72099164 2.13498274 326.56735992 2.07650757 C327.37267654 2.03396851 328.17799316 1.99142944 329.00771332 1.94760132 C335.644956 1.76995611 341.54491016 3.50654137 346.6332016 7.91177368 C349.88646629 11.18135799 351.52446078 14.14208305 351.97116852 18.87435913 C351.3935709 24.16302129 348.02614511 28.57212858 345.27439117 32.99838257 C344.2374587 34.72721949 343.2005754 36.45608774 342.16631317 38.18652344 C341.08202787 39.99609987 339.98939097 41.80046218 338.89646149 43.60482788 C335.71393733 48.88409874 332.68482551 54.25027079 329.64707184 59.61364746 C323.77817395 69.96536222 317.80402602 80.25448276 311.78977203 90.52230835 C307.31632905 98.1748705 302.94719844 105.88270772 298.60349274 113.60946655 C294.72842559 120.48812098 290.76958173 127.31390338 286.77439117 134.12338257 C281.90539694 142.42440742 277.14482381 150.77851229 272.46189117 159.18588257 C268.28356146 166.6872214 264.05353874 174.1453522 259.66867828 181.52767944 C255.71283337 188.20450524 251.86779322 194.94397066 248.02439117 201.68588257 C242.77794627 210.88762732 237.51261019 220.07773169 232.21189117 229.24838257 C226.65456988 238.86344215 221.13769002 248.50096187 215.6372757 258.14862061 C210.41334996 267.30783735 205.11899363 276.42400322 199.78977203 285.52230835 C195.31632905 293.1748705 190.94719844 300.88270772 186.60349274 308.60946655 C182.72842559 315.48812098 178.76958173 322.31390338 174.77439117 329.12338257 C169.90539656 337.42440807 165.14483695 345.77851852 160.46189117 354.18588257 C155.34141665 363.37835013 150.12330887 372.49877319 144.72556305 381.53109741 C143.7884847 383.11862369 142.88158459 384.7238598 141.97751617 386.33041382 C138.75237093 392.00766692 135.70409748 396.25227942 129.71189117 399.24838257 C123.50524925 399.7757443 117.93080786 400.01085739 112.71189117 396.24838257 C107.34005498 390.57768531 103.65259306 384.34854187 99.83689117 377.56088257 C98.84593035 375.82050838 97.85496378 374.08013744 96.86370087 372.3399353 C95.83145747 370.52492875 94.80273643 368.70796616 93.77487946 366.89047241 C91.11995645 362.19840325 88.43902817 357.52134158 85.76023102 352.84286499 C83.7531775 349.33631993 81.7494257 345.82791081 79.74704742 342.31869507 C76.07083296 335.87648591 72.39137676 329.43613416 68.71088409 322.99636841 C67.04440835 320.08045585 65.37816136 317.16441259 63.71189117 314.24838257 C63.0452256 313.08171528 62.37855894 311.91504861 61.71189117 310.74838257 C55.04522451 299.0817159 48.37855784 287.41504924 41.71189117 275.74838257 C41.38189621 275.17089264 41.05190125 274.59340271 40.71190643 273.99841309 C40.04518452 272.8316472 39.37846699 271.66487881 38.71175385 270.49810791 C37.04596833 267.58293879 35.3801069 264.6678131 33.71408844 261.7527771 C30.70348804 256.48495062 27.6934497 251.21680698 24.68622589 245.947052 C17.8871116 234.03262112 11.07435944 222.12649453 4.21189117 210.24838257 C-2.99023676 197.78236034 -10.13640559 185.28477013 -17.27199554 172.78060913 C-20.27544058 167.51790337 -23.28240847 162.25721071 -26.28911591 156.99636841 C-27.95559165 154.08045585 -29.62183864 151.16441259 -31.28810883 148.24838257 C-31.9547744 147.08171528 -32.62144106 145.91504861 -33.28810883 144.74838257 C-51.28810883 113.24838257 -51.28810883 113.24838257 -69.28810883 81.74838257 C-69.61804337 81.17099838 -69.94797791 80.5936142 -70.28791046 79.99873352 C-70.95524272 78.83089952 -71.6225706 77.66306301 -72.2898941 76.495224 C-73.94634137 73.59639711 -75.60287923 70.69762207 -77.25954437 67.79891968 C-80.38145589 62.33624892 -83.50266188 56.87317962 -86.6213913 51.40869141 C-88.0931111 48.83011424 -89.56522839 46.25176411 -91.0373764 43.6734314 C-91.73842159 42.44535477 -92.43927242 41.21716718 -93.13991547 39.98886108 C-94.11199652 38.28472189 -95.08480379 36.58099699 -96.05764008 34.87728882 C-96.61040619 33.90863892 -97.1631723 32.93998901 -97.7326889 31.94198608 C-98.78388835 30.12156802 -99.86552015 28.31843852 -100.97438812 26.53256226 C-102.84596202 23.27843748 -102.48171193 21.19851152 -101.92873383 17.59213257 C-100.54364576 12.52473722 -97.62221948 8.7846312 -94.22560883 4.87338257 C-86.4607219 0.5779132 -76.12582942 0.88050642 -67.42482758 0.63900757 C-66.20736343 0.6018866 -64.98989929 0.56476562 -63.7355423 0.52651978 C-42.49920487 -0.06458241 -21.24252572 0.00859307 0 0 Z " fill="#FFFFFF" transform="translate(964.2881088256836,771.7516174316406)"/>
<path d="M0 0 C3.5550144 0.00108326 7.11001146 -0.00384802 10.66502208 -0.00860542 C19.07231207 -0.01963707 27.47955737 -0.02017491 35.88685107 -0.01409125 C44.4829017 -0.00806534 53.07878807 -0.02034203 61.67481071 -0.04166132 C69.12268272 -0.05943557 76.57050323 -0.06525385 84.0183956 -0.06202358 C88.43663995 -0.06023456 92.85476729 -0.06260182 97.2729919 -0.07673812 C143.74031064 -0.21253588 193.40704502 4.13451901 231.81336474 33.30158257 C233.07406787 34.25097711 233.07406787 34.25097711 234.36023974 35.21955132 C236.89597911 37.19223055 239.36120199 39.22608432 241.81336474 41.30158257 C242.69766162 42.03892632 243.58195849 42.77627007 244.49305224 43.53595757 C255.85633504 53.38628204 264.44975503 65.23863315 271.81336474 78.30158257 C272.40762256 79.35345757 273.00188037 80.40533257 273.61414599 81.48908257 C282.20460202 97.64142561 286.96573163 115.30988756 289.81336474 133.30158257 C289.9305083 134.00766656 290.04765185 134.71375054 290.16834521 135.44123101 C297.53273894 181.85989105 291.40899724 236.17727276 263.81336474 275.23908257 C259.76949741 280.52967581 255.38755593 285.46644759 250.81336474 290.30158257 C250.06570849 291.11369195 249.31805224 291.92580132 248.54773974 292.76252007 C225.02238519 317.45635251 191.77308056 330.32385759 158.87586474 336.55158257 C158.09235644 336.70272515 157.30884814 336.85386773 156.50159717 337.00959039 C135.49198015 340.69599908 114.25704005 340.60445524 93.00818324 340.57023358 C88.79183348 340.56508077 84.57549132 340.56989026 80.35914111 340.57300591 C73.28576068 340.57661906 66.21242234 340.57191689 59.13904834 340.56232476 C51.0240128 340.55144539 42.90907785 340.55497287 34.79404473 340.56597757 C27.75891199 340.57512685 20.72380909 340.57629882 13.6886723 340.57110023 C9.51655093 340.56802207 5.34447642 340.56745394 1.17235827 340.57417321 C-20.05787048 340.60373723 -41.31384076 340.58745768 -62.24913526 336.55158257 C-63.58536939 336.29997369 -63.58536939 336.29997369 -64.94859815 336.04328179 C-105.57183156 328.05077222 -145.08652531 308.66553346 -168.78429151 273.51252007 C-179.82569334 256.61896811 -187.20102248 238.40631401 -191.43663526 218.67658257 C-191.66322827 217.62325738 -191.66322827 217.62325738 -191.89439893 216.54865289 C-194.93456474 201.37011493 -195.59284923 186.42313215 -195.56163526 170.98908257 C-195.56109143 169.97645349 -195.56054761 168.9638244 -195.55998731 167.92050958 C-195.44957275 123.12532252 -184.48079631 79.96810961 -152.49913526 47.17658257 C-128.28366727 23.28187549 -96.64183364 10.61758188 -63.74913526 4.11408257 C-62.59006665 3.88156793 -62.59006665 3.88156793 -61.40758252 3.64435601 C-58.67421086 3.1348149 -55.93656261 2.71363202 -53.18663526 2.30158257 C-52.05475781 2.13186944 -50.92288037 1.96215631 -49.75670362 1.78730035 C-33.26430413 -0.40533757 -16.60198237 -0.010045 0 0 Z M-75.18663526 98.30158257 C-75.89561963 98.98865289 -76.60460401 99.6757232 -77.33507276 100.38361382 C-95.39854555 119.03536064 -98.24272901 148.6603966 -98.18663526 173.30158257 C-97.56636901 197.69610442 -93.04500688 222.61331842 -76.18663526 241.30158257 C-75.68003369 241.89970757 -75.17343213 242.49783257 -74.65147901 243.11408257 C-60.50402408 258.68671109 -38.3539963 263.92902009 -18.18663526 265.30158257 C-13.81141867 265.44225329 -9.43938036 265.45853716 -5.06212354 265.46271539 C-3.79702451 265.46768029 -2.53192548 265.4726452 -1.22849011 265.47776055 C2.21224099 265.49075404 5.65295271 265.49730432 9.09370446 265.50177121 C11.25564296 265.50472478 13.41757643 265.5088337 15.57951236 265.51327538 C22.37919241 265.52691941 29.17886064 265.53659969 35.97855341 265.54047728 C43.76117952 265.54494281 51.54362868 265.56243351 59.32620108 265.59147787 C65.38530317 265.61328518 71.44435619 265.62319167 77.503497 265.62451839 C81.10179895 265.62555345 84.69993396 265.63117616 88.29819369 265.64933801 C118.67742839 266.00696548 118.67742839 266.00696548 147.81336474 258.30158257 C149.29836474 257.67123101 149.29836474 257.67123101 150.81336474 257.02814507 C169.26635073 248.50776124 180.68084192 233.83993624 188.02820849 215.22345757 C198.74879769 183.66851579 197.27860284 144.23149545 183.25477099 113.93439507 C173.7959427 96.46845315 158.65034637 85.08007694 139.81336474 79.30158257 C128.14466692 76.13131992 117.22941756 75.15201281 105.18397021 75.1563189 C103.81635963 75.15332203 102.44874989 75.14991829 101.08114123 75.14614129 C97.38450729 75.13734846 93.68789653 75.1349651 89.99125314 75.1343255 C87.67477406 75.13361205 85.35830078 75.13147209 83.04182315 75.12882829 C74.94027595 75.11958876 66.83874516 75.11549144 58.73719287 75.11627984 C51.21873364 75.11687948 43.70034642 75.10634649 36.18190539 75.09053618 C29.70089609 75.07739951 23.21991015 75.07209854 16.73888767 75.07273525 C12.8797955 75.07298855 9.02076732 75.0702317 5.16168857 75.0595572 C1.52546228 75.04977307 -2.11064021 75.04986651 -5.74687123 75.05707383 C-7.69311247 75.0585941 -9.63935396 75.0503446 -11.5855763 75.04163384 C-35.48570839 75.12558873 -58.01280439 80.92119361 -75.18663526 98.30158257 Z " fill="#FFFFFF" transform="translate(1897.1866352558136,1422.6984174251556)"/>
<path d="M0 0 C2.35745234 0.00056552 4.71490504 0.00024481 7.07235718 -0.00088501 C13.41197055 -0.00145402 19.75150677 0.01022647 26.09110236 0.02426291 C32.06337411 0.03556778 38.03564626 0.03751593 44.00792668 0.03956665 C55.8215423 0.04392237 67.63512998 0.05717321 79.44873047 0.07617188 C90.91096865 0.09458608 102.37319919 0.10871531 113.83544922 0.1171875 C114.89879951 0.11797567 114.89879951 0.11797567 115.98363163 0.11877976 C119.54068256 0.12139022 123.09773354 0.12391754 126.65478456 0.12640357 C156.07106554 0.14706982 185.48730656 0.18390335 214.90356445 0.22705078 C214.90356445 24.97705078 214.90356445 49.72705078 214.90356445 75.22705078 C208.10037598 75.24687012 201.2971875 75.26668945 194.2878418 75.28710938 C172.47956458 75.35202109 150.67132863 75.42656048 128.86310371 75.50710239 C125.47131746 75.51962013 122.0795309 75.53205308 118.68774414 75.54443359 C118.01254693 75.54689959 117.33734973 75.54936558 116.641692 75.5519063 C105.73243331 75.5915479 94.82316438 75.62433313 83.91387598 75.6545506 C72.70631623 75.68574814 61.49879671 75.72453744 50.2912842 75.76984084 C44.00194486 75.79502616 37.71263577 75.81683081 31.42325974 75.83039474 C25.4955191 75.84328758 19.56788262 75.86541906 13.64019966 75.89443398 C11.47236449 75.90345354 9.30451257 75.90918674 7.13665962 75.91126442 C-19.13158967 75.94093149 -45.35603774 78.97407021 -65.09643555 98.22705078 C-84.42963894 120.28324056 -88.6428595 151.1761814 -86.96020508 179.52197266 C-85.23288023 203.96875721 -80.0051412 227.67940228 -61.50268555 245.19970703 C-51.52084913 253.6097283 -40.11017543 258.43558278 -27.53393555 261.47705078 C-26.86217285 261.64035889 -26.19041016 261.80366699 -25.49829102 261.97192383 C-16.46647847 264.00999935 -7.27143259 264.37480716 1.95805359 264.38526917 C3.38097716 264.39267613 3.38097716 264.39267613 4.83264667 264.40023273 C7.97697119 264.41545854 11.12127554 264.42392741 14.265625 264.43237305 C16.53323032 264.44196333 18.8008339 264.45197407 21.06843567 264.46237183 C27.19980892 264.48930232 33.33118977 264.51037575 39.46258903 264.53037381 C45.87943628 264.55230687 52.29626042 264.57965961 58.71308899 264.60643005 C69.47538303 264.65060274 80.23768374 264.69145439 91 264.72973633 C102.08041307 264.76915891 113.16081559 264.8106011 124.24121094 264.85473633 C125.26738947 264.85882274 125.26738947 264.85882274 126.31429889 264.8629917 C129.74665843 264.87667229 133.17901781 264.89039234 136.61137712 264.90413201 C165.04208509 265.0178886 193.4728157 265.12395555 221.90356445 265.22705078 C221.90356445 289.97705078 221.90356445 314.72705078 221.90356445 340.22705078 C191.43165126 340.27124894 160.95976244 340.30813577 130.48782696 340.32918144 C126.87974266 340.33168247 123.27165842 340.33427115 119.66357422 340.33691406 C118.94535396 340.33743868 118.22713371 340.3379633 117.4871492 340.33850382 C105.90037695 340.34717573 94.31362481 340.36292774 82.72686443 340.38135637 C70.81304354 340.40014533 58.89923309 340.41118639 46.98539799 340.41522777 C40.30401407 340.41771137 33.62268091 340.42387293 26.94130898 340.43851089 C20.63684764 340.45220959 14.33244989 340.45624889 8.02797508 340.45326614 C5.7292229 340.45381086 3.43046832 340.45771439 1.13172913 340.46546173 C-16.72068454 340.52261534 -34.5142243 339.83064507 -52.09643555 336.47705078 C-53.43943726 336.22544189 -53.43943726 336.22544189 -54.80957031 335.96875 C-95.70467476 327.96216757 -134.93093448 308.48150634 -159.03393555 273.41455078 C-187.31057386 230.67745439 -191.63299262 173.57020696 -181.90893555 124.28955078 C-173.9508319 86.35552478 -154.81222149 52.45879865 -122.13989258 30.55175781 C-101.44825839 17.13804132 -78.39690861 8.56158171 -54.22143555 4.03955078 C-52.98514404 3.80703613 -52.98514404 3.80703613 -51.72387695 3.56982422 C-34.48992705 0.54886451 -17.45437009 -0.05938784 0 0 Z " fill="#FFFFFF" transform="translate(322.096435546875,1422.77294921875)"/>
<path d="M0 0 C33 0 66 0 100 0 C117.06316349 39.81404815 117.06316349 39.81404815 122.73629761 53.44061279 C124.59741396 57.91004866 126.46499215 62.37678577 128.33203125 66.84375 C128.7157338 67.76199554 129.09943634 68.68024109 129.49476624 69.62631226 C133.78444352 79.8862436 138.10899783 90.13140075 142.4375 100.375 C142.83045258 101.30509888 143.22340515 102.23519775 143.62826538 103.19348145 C146.41788166 109.79606102 149.20877102 116.39810205 152 123 C155.18839564 130.54128836 158.37620993 138.08282173 161.5625 145.625 C161.95589569 146.55616638 162.34929138 147.48733276 162.75460815 148.44671631 C169.26739731 163.86577677 175.74054949 179.30117107 182.19116211 194.74633789 C186.21870675 204.38495925 190.27082807 214.01267268 194.3515625 223.62890625 C194.79409363 224.67271454 195.23662476 225.71652283 195.69256592 226.79196167 C197.84420272 231.86702773 199.99914147 236.94063874 202.16015625 242.01171875 C202.93245416 243.83196231 203.70459797 245.65227127 204.4765625 247.47265625 C204.83497223 248.31002823 205.19338196 249.14740021 205.56265259 250.01014709 C208 255.77281146 208 255.77281146 208 258 C218.56 258 229.12 258 240 258 C240.33 256.35 240.66 254.7 241 253 C241.47776874 251.65660101 241.997339 250.32738391 242.55615234 249.015625 C242.8759053 248.25851227 243.19565826 247.50139954 243.52510071 246.72134399 C243.87517685 245.90580048 244.22525299 245.09025696 244.5859375 244.25 C244.9543425 243.38120209 245.3227475 242.51240417 245.70231628 241.61727905 C246.92223734 238.74300138 248.14869121 235.87155745 249.375 233 C250.23610267 230.97368542 251.09669011 228.94715181 251.95678711 226.92041016 C253.74600154 222.70550725 255.53743715 218.49155919 257.33056641 214.27832031 C261.03181927 205.5780922 264.71099738 196.86856063 268.38775635 188.15795898 C269.57171429 185.35317141 270.75630423 182.54865128 271.94091797 179.74414062 C277.31930742 167.00666345 282.66702799 154.2565507 288 141.5 C294.11887536 126.86355644 300.26380355 112.23840807 306.4375 97.625 C306.82882111 96.69864746 307.22014221 95.77229492 307.62332153 94.81787109 C311.24419137 86.24716491 314.86728886 77.67740142 318.4921875 69.10839844 C320.97491719 63.23933744 323.45647216 57.3697806 325.9375 51.5 C326.53312241 50.09134674 326.53312241 50.09134674 327.14077759 48.65423584 C331.06528441 39.37038462 334.98005575 30.08308257 338.82421875 20.765625 C339.11221848 20.06759766 339.4002182 19.36957031 339.69694519 18.65039062 C341.00719427 15.4713648 342.31270198 12.29052279 343.61303711 9.10742188 C344.27251343 7.49963867 344.27251343 7.49963867 344.9453125 5.859375 C345.32187988 4.93608398 345.69844727 4.01279297 346.08642578 3.06152344 C347 1 347 1 348 0 C351.07454761 -0.09532328 354.12659158 -0.1255138 357.20141602 -0.11352539 C358.65004028 -0.11374443 358.65004028 -0.11374443 360.12792969 -0.1139679 C363.33661099 -0.11326834 366.54523503 -0.10547397 369.75390625 -0.09765625 C371.97208118 -0.09579222 374.19025652 -0.09436825 376.40843201 -0.09336853 C382.25940071 -0.08954216 388.11034477 -0.07971086 393.96130371 -0.06866455 C399.92667304 -0.05845299 405.89204633 -0.05387146 411.85742188 -0.04882812 C423.57162544 -0.03808869 435.28581067 -0.02101085 447 0 C446.43694771 3.12694811 445.73689256 5.95297362 444.50390625 8.88012695 C444.04473816 9.97965446 444.04473816 9.97965446 443.57629395 11.10139465 C443.24174194 11.88906723 442.90718994 12.67673981 442.5625 13.48828125 C442.21086792 14.32626755 441.85923584 15.16425385 441.49694824 16.02763367 C440.33584794 18.79119475 439.16799587 21.55184701 438 24.3125 C437.18129889 26.25701761 436.3629445 28.20168124 435.54492188 30.14648438 C429.53206436 44.42812143 423.46693655 58.68765715 417.39404297 72.94384766 C412.2582255 85.00590763 407.17928135 97.09106899 402.125 109.1875 C395.96531514 123.92849208 389.78065602 138.6585699 383.5625 153.375 C383.16903381 154.30621674 382.77556763 155.23743347 382.37017822 156.1968689 C380.37755898 160.91234056 378.38444093 165.6276012 376.39111328 170.34277344 C374.0079617 175.9804958 371.62672458 181.6190253 369.24609375 187.2578125 C368.85442017 188.18553467 368.46274658 189.11325684 368.0592041 190.0690918 C366.87277048 192.87938092 365.68637717 195.68968705 364.5 198.5 C360.13907457 208.83024363 355.77811306 219.16046956 351.41197205 229.48851013 C343.05756612 249.25082513 334.72100592 269.0203455 326.4375 288.8125 C326.06069092 289.71266846 325.68388184 290.61283691 325.2956543 291.5402832 C321.74752591 300.01795493 318.2037585 308.49733472 314.6875 316.98828125 C314.21256104 318.13385498 313.73762207 319.27942871 313.24829102 320.4597168 C312.40529602 322.49537149 311.56445957 324.53192213 310.72631836 326.56958008 C310.37190674 327.42575928 310.01749512 328.28193848 309.65234375 329.1640625 C309.20362915 330.25388428 309.20362915 330.25388428 308.74584961 331.36572266 C308 333 308 333 307 334 C304.86106733 334.09692063 302.71887033 334.12186803 300.57774353 334.12025452 C299.55965736 334.12153615 299.55965736 334.12153615 298.52100378 334.12284368 C296.23004074 334.12450041 293.93914974 334.118974 291.64819336 334.11352539 C290.01259869 334.11324353 288.3770039 334.11340122 286.7414093 334.1139679 C282.28705414 334.11425593 277.83272566 334.10835824 273.37837672 334.10139394 C268.72853526 334.09516139 264.07869326 334.09455668 259.42884827 334.09336853 C250.61738298 334.09025492 241.80593003 334.08204113 232.99447018 334.07201904 C222.96561892 334.06085882 212.93676709 334.05534768 202.90791118 334.05032361 C182.27193389 334.03985854 161.63596772 334.02225853 141 334 C140.20169574 332.41534033 139.4047745 330.82998389 138.60842896 329.24433899 C138.16449358 328.36156941 137.7205582 327.47879984 137.26317024 326.56927967 C135.603831 323.19419495 134.11897336 319.76623357 132.6796875 316.29296875 C132.38366638 315.58693512 132.08764526 314.88090149 131.78265381 314.1534729 C130.81035054 311.83275952 129.84273653 309.51012094 128.875 307.1875 C128.17536736 305.51570172 127.47532425 303.84407518 126.77490234 302.17260742 C125.66653867 299.52761685 124.5583963 296.8825364 123.45144653 294.23695374 C119.59689914 285.02640525 115.70782223 275.83054427 111.81842041 266.63467407 C105.18009739 250.93651527 98.57365928 235.2253408 92 219.5 C83.51285226 199.19824466 74.95922115 178.92492463 66.39111328 158.65722656 C62.02833658 148.33638756 57.67161791 138.01298922 53.31378174 127.69006348 C52.12719421 124.87929726 50.94056635 122.06854808 49.75390625 119.2578125 C49.36223267 118.33009033 48.97055908 117.40236816 48.5670166 116.4465332 C45.78466662 109.85686228 43.00008422 103.26813713 40.21484375 96.6796875 C32.61239011 78.69414151 25.02036004 60.70422487 17.46975708 42.69683838 C16.71645141 40.90067287 15.96263284 39.10472236 15.20822144 37.309021 C14.85454498 36.46696106 14.50086853 35.62490112 14.13647461 34.75732422 C13.83100204 34.03044403 13.52552948 33.30356384 13.21080017 32.55465698 C8.69404962 21.74066866 4.35460494 10.88651235 0 0 Z " fill="#FFFFFF" transform="translate(1055,1426)"/>
<path d="M0 0 C31.02 0 62.04 0 94 0 C94 74.58 94 149.16 94 226 C62.98 226 31.96 226 0 226 C0 151.42 0 76.84 0 0 Z " fill="#FFFFFF" transform="translate(1559,1534)"/>
<path d="M0 0 C31.68 0 63.36 0 96 0 C96 24.42 96 48.84 96 74 C64.32 74 32.64 74 0 74 C0 49.58 0 25.16 0 0 Z " fill="#FFFFFF" transform="translate(1558,1423)"/>
<path d="M0 0 C12.71561904 -0.59892409 23.98246869 4.13970127 33.90234375 11.80078125 C43.43381999 20.4831282 47.79282347 32.27894174 49.12109375 44.83203125 C49.61664566 57.22082889 45.05458928 70.39870454 36.6328125 79.5546875 C24.89623003 90.41999528 12.97902533 93.74878502 -2.56640625 93.484375 C-15.07600625 92.96581576 -25.02067666 86.83602537 -33.46875 77.8984375 C-42.88184941 66.73583275 -45.06061485 54.55687534 -44.3515625 40.39355469 C-43.32404895 28.91109073 -36.77720391 18.94892017 -28.6171875 11.1328125 C-20.20755043 4.56528641 -10.54218651 1.03130085 0 0 Z M-27.15625 20.2109375 C-34.98262457 30.1426526 -38.58065331 40.56735752 -37.15625 53.2109375 C-34.50685312 65.27542272 -28.13248756 74.01208447 -18.15625 81.2109375 C-8.30512297 86.23052792 2.1375354 87.99939712 12.96875 85.0859375 C24.30528296 81.17365085 32.22694763 74.6003267 37.71875 63.9609375 C42.17694549 54.69025283 42.51713142 42.96921946 39.21875 33.2109375 C34.64188702 22.52092186 26.67040177 14.38383302 15.921875 9.9375 C0.71212561 4.61980566 -15.90919784 8.74801101 -27.15625 20.2109375 Z " fill="#FFFFFF" transform="translate(2702.15625,1337.7890625)"/>
<path d="M0 0 C3.980625 -0.04125 7.96125 -0.0825 12.0625 -0.125 C13.92467163 -0.15231201 13.92467163 -0.15231201 15.82446289 -0.18017578 C28.86991939 -0.24549261 28.86991939 -0.24549261 34.875 4.0625 C37.7148479 7.9881721 38.29551607 11.19786379 38 16 C36.96542892 20.14612197 35.6419793 22.5720138 32 25 C32.62390625 25.62261719 33.2478125 26.24523438 33.890625 26.88671875 C36.72570998 31.07109418 37.12353015 34.87075842 37.75 39.8125 C37.87503906 40.69615234 38.00007813 41.57980469 38.12890625 42.49023438 C38.43364971 44.6586013 38.72350797 46.82788115 39 49 C36.36 49 33.72 49 31 49 C29.07606473 45.15212946 29.1186607 40.5188647 28.59765625 36.28515625 C28.20113927 32.87182588 28.20113927 32.87182588 26 30 C22.28574757 28.76191586 18.68709247 28.64419129 14.8125 28.4375 C12.234375 28.293125 9.65625 28.14875 7 28 C7 34.93 7 41.86 7 49 C4.69 49 2.38 49 0 49 C0 32.83 0 16.66 0 0 Z M7 7 C7 11.95 7 16.9 7 22 C9.89684158 22.10829314 12.78961019 22.18743954 15.6875 22.25 C16.50412109 22.28351563 17.32074219 22.31703125 18.16210938 22.3515625 C22.24834853 22.41773641 24.4531954 22.32247451 28.046875 20.203125 C30.31407046 18.04238496 30.31407046 18.04238496 30.5625 14.5 C30.25159808 11.06417899 30.25159808 11.06417899 28.57421875 8.796875 C24.63587693 6.04780484 20.92625915 6.57040955 16.25 6.75 C15.36183594 6.76804687 14.47367188 6.78609375 13.55859375 6.8046875 C11.37193225 6.85171248 9.18582719 6.92345352 7 7 Z " fill="#FFFFFF" transform="translate(2688,1359)"/>
</svg>
